# Blender 4.3.2
# www.blender.org
mtllib Sketchfab_2022_08_07_23_25_56.mtl
g Cube.031_Cube.033
v 6.485946 3.071288 0.117190
v 6.485946 3.071288 -0.116863
v 6.602044 4.113118 0.117190
v 6.602044 4.113118 -0.116863
v 6.532587 4.168993 0.117190
v 6.532587 4.168993 -0.116863
v 6.531253 4.501322 0.117190
v 6.531253 4.501322 -0.116863
v 6.603052 4.545470 0.117190
v 6.603053 4.545470 -0.116863
v 6.596722 5.081357 0.117190
v 6.596722 5.081357 -0.116863
v 6.558742 5.113008 0.117190
v 6.558742 5.113008 -0.116863
v 6.558742 5.255434 0.117190
v 6.558742 5.255434 -0.116863
v 6.603052 5.287085 0.117190
v 6.603052 5.287085 -0.116863
v 6.584062 5.584809 0.117191
v 6.584062 5.584809 -0.116863
v 6.628373 5.609918 0.117191
v 6.628373 5.609918 -0.116863
v 6.679013 5.768169 0.117191
v 6.679013 5.768169 -0.116863
v 6.606217 5.856790 0.117191
v 6.606217 5.856790 -0.116863
v 6.571402 6.363194 0.117191
v 6.571402 6.363194 -0.116863
v 6.631537 6.435990 0.117191
v 6.631537 6.435990 -0.116863
v 6.248294 2.976337 -0.088050
v 6.377881 2.977566 -0.116863
v 6.248294 4.198314 -0.088050
v 6.299450 4.183570 -0.116863
v 6.557717 6.558321 -0.116863
v 6.520761 6.619562 -0.088050
v 6.489599 6.474363 -0.116863
v 6.447966 6.530942 -0.088050
v 6.468109 5.866315 -0.116863
v 6.422646 5.869450 -0.088050
v 6.323425 5.810167 -0.116863
v 6.277054 5.815644 -0.088050
v 6.323839 5.631866 -0.116863
v 6.277054 5.635238 -0.088050
v 6.241902 5.588835 -0.116863
v 6.182103 5.584598 -0.088050
v 6.274975 5.382813 -0.116863
v 6.220084 5.350385 -0.088050
v 6.334254 5.358059 -0.116863
v 6.283399 5.323945 -0.088050
v 6.330236 5.149361 -0.116863
v 6.280219 5.157318 -0.088050
v 6.374756 5.125235 -0.116863
v 6.324530 5.135163 -0.088050
v 6.363146 4.788843 -0.116863
v 6.315034 4.837650 -0.088050
v 6.212969 4.742109 -0.116863
v 6.153618 4.787009 -0.088050
v 6.238216 4.369911 -0.116863
v 6.178938 4.410371 -0.088050
v 6.375635 2.976669 0.117190
v 6.248294 2.976337 0.089642
v 6.297204 4.184217 0.117190
v 6.248294 4.198314 0.089643
v 6.520761 6.619562 0.089643
v 6.556094 6.561010 0.117191
v 6.447966 6.530942 0.089643
v 6.487770 6.476849 0.117191
v 6.422646 5.869450 0.089643
v 6.466112 5.866452 0.117191
v 6.277054 5.815644 0.089643
v 6.321388 5.810409 0.117191
v 6.277054 5.635238 0.089643
v 6.321784 5.632014 0.117191
v 6.182103 5.584598 0.089643
v 6.239276 5.588649 0.117191
v 6.220084 5.350385 0.089643
v 6.272564 5.381389 0.117190
v 6.283399 5.323945 0.089643
v 6.332021 5.356561 0.117190
v 6.280219 5.157318 0.089643
v 6.328040 5.149711 0.117190
v 6.324530 5.135163 0.089643
v 6.372550 5.125670 0.117190
v 6.315034 4.837650 0.089643
v 6.361033 4.790987 0.117190
v 6.153618 4.787009 0.089643
v 6.210362 4.744081 0.117190
v 6.178938 4.410371 0.089643
v 6.235613 4.371688 0.117190
v 6.369127 6.844329 -0.074516
v 6.231613 5.901156 -0.074516
v 6.369127 6.844329 0.076110
v 6.231613 5.901156 0.076109
v 6.471991 6.846966 -0.074516
v 6.471991 6.846966 0.076110
v 6.490453 6.512001 -0.074516
v 6.490453 6.512001 0.076110
v 6.445615 5.842070 -0.074517
v 6.445615 5.842070 0.076109
v 6.329564 5.773494 -0.074517
v 6.329564 5.773494 0.076109
v 7.053638 5.703647 -0.041982
v 6.705000 5.593015 -0.041982
v 7.053638 5.703647 0.043575
v 6.705000 5.593015 0.043575
v 6.563050 5.713595 -0.074517
v 6.563050 5.713595 0.076109
v 7.055164 5.531170 -0.041982
v 7.055164 5.531170 0.043575
v 6.809677 5.460576 -0.041982
v 6.809677 5.460576 0.043575
v 6.812475 5.195374 -0.074517
v 6.812475 5.195374 0.076109
v 6.914741 5.035108 -0.074517
v 6.914741 5.035108 0.076109
v 6.785001 4.651995 -0.074517
v 6.785001 4.651995 0.076109
v 6.580471 4.535993 -0.074517
v 6.580471 4.535993 0.076109
v 6.575892 5.064108 -0.074517
v 6.575892 5.064108 0.076109
v 6.696473 5.154162 -0.074517
v 6.696473 5.154162 0.076109
v 6.687315 5.181636 -0.074517
v 6.687315 5.181636 0.076109
v 6.559102 5.293059 -0.074517
v 6.559102 5.293059 0.076109
v 7.163568 5.722855 -0.041049
v 7.163568 5.722855 0.042642
v 7.143725 5.489324 -0.041049
v 7.143725 5.489324 0.042642
v 6.779616 5.251552 0.076109
v 6.779616 5.251552 -0.074517
v 6.778556 5.404186 0.076109
v 6.778556 5.404186 -0.074517
v 6.723439 5.441285 0.076109
v 6.723439 5.441285 -0.074517
v 6.658781 5.413726 0.076109
v 6.658781 5.413726 -0.074517
v 6.655601 5.260031 0.076109
v 6.655601 5.260031 -0.074517
v 6.718139 5.207033 0.076109
v 6.718139 5.207033 -0.074517
v 6.811730 5.266000 0.076109
v 6.811730 5.266000 -0.074517
v 6.472334 2.783433 -0.048689
v 6.472334 2.672714 -0.048689
v 6.437906 2.783433 -0.034428
v 6.437906 2.672714 -0.034428
v 6.423645 2.783433 0.000000
v 6.423645 2.672714 0.000000
v 6.437906 2.783433 0.034429
v 6.437906 2.672714 0.034429
v 6.472334 2.783433 0.048690
v 6.472334 2.672714 0.048690
v 6.506763 2.783433 0.034429
v 6.506763 2.672714 0.034429
v 6.521024 2.783433 0.000000
v 6.521024 2.672714 0.000000
v 6.506763 2.783433 -0.034428
v 6.506763 2.672714 -0.034428
v 6.248294 2.976337 0.000796
v 6.248294 4.198314 0.000796
v 6.178938 4.410371 0.000796
v 6.520761 6.619562 0.000797
v 6.447966 6.530942 0.000797
v 6.422646 5.869450 0.000796
v 6.277054 5.815644 0.000796
v 6.277054 5.635238 0.000796
v 6.182103 5.584598 0.000796
v 6.220084 5.350385 0.000796
v 6.283399 5.323945 0.000796
v 6.280219 5.157318 0.000796
v 6.324530 5.135163 0.000796
v 6.315034 4.837650 0.000796
v 6.153618 4.787009 0.000796
v 6.485946 3.071288 0.000163
v 6.602044 4.113118 0.000164
v 6.532587 4.168993 0.000164
v 6.531253 4.501322 0.000164
v 6.603053 4.545470 0.000164
v 6.596722 5.081357 0.000164
v 6.558742 5.113008 0.000164
v 6.558742 5.255434 0.000164
v 6.603052 5.287085 0.000164
v 6.584062 5.584809 0.000164
v 6.628373 5.609918 0.000164
v 6.679013 5.768169 0.000164
v 6.606217 5.856790 0.000164
v 6.571402 6.363194 0.000164
v 6.631537 6.435990 0.000164
v 6.375036 2.976429 0.000667
v 6.556903 6.559670 0.000590
v 6.472334 2.651372 -0.067363
v 6.424702 2.651372 -0.047632
v 6.404972 2.651372 0.000000
v 6.424702 2.651372 0.047633
v 6.472334 2.651372 0.067363
v 6.519968 2.651372 0.047633
v 6.539698 2.651372 0.000000
v 6.519968 2.651372 -0.047632
v 6.472334 2.590012 -0.075383
v 6.419030 2.590012 -0.053304
v 6.396951 2.590012 0.000000
v 6.419030 2.590012 0.053305
v 6.472334 2.590012 0.075384
v 6.525639 2.590012 0.053305
v 6.547718 2.590012 0.000000
v 6.525639 2.590012 -0.053304
v 6.472334 2.559332 -0.075383
v 6.419030 2.559332 -0.053304
v 6.396951 2.559332 0.000000
v 6.419030 2.559332 0.053305
v 6.472334 2.559332 0.075384
v 6.525639 2.559332 0.053305
v 6.547718 2.559332 0.000000
v 6.525639 2.559332 -0.053304
v 6.472334 2.107135 -0.056390
v 6.432460 2.107135 -0.039874
v 6.415944 2.107135 0.000000
v 6.432460 2.107135 0.039874
v 6.472334 2.107135 0.056391
v 6.512208 2.107135 0.039874
v 6.528725 2.107135 0.000000
v 6.512208 2.107135 -0.039874
v 6.472334 2.107135 -0.032591
v 6.449289 2.107135 -0.023045
v 6.439743 2.107135 0.000000
v 6.449289 2.107135 0.023046
v 6.472334 2.107135 0.032592
v 6.495380 2.107135 0.023046
v 6.504926 2.107135 0.000000
v 6.495380 2.107135 -0.023045
v 6.472334 2.156311 -0.032591
v 6.449289 2.156311 -0.023045
v 6.439743 2.156311 0.000000
v 6.449289 2.156311 0.023046
v 6.472334 2.156311 0.032592
v 6.495380 2.156311 0.023046
v 6.504926 2.156311 0.000000
v 6.495380 2.156311 -0.023045
v 6.472334 2.791214 -0.105529
v 6.397714 2.791214 -0.074620
v 6.366805 2.791214 0.000000
v 6.397714 2.791214 0.074621
v 6.472334 2.791214 0.105530
v 6.546955 2.791214 0.074621
v 6.577864 2.791214 0.000000
v 6.546955 2.791214 -0.074620
v 6.472334 2.988962 -0.105529
v 6.397714 2.988962 -0.074620
v 6.366805 2.988962 0.000000
v 6.397714 2.988962 0.074621
v 6.472334 2.988962 0.105530
v 6.546955 2.988962 0.074621
v 6.577864 2.988962 0.000000
v 6.546955 2.988962 -0.074620
v 6.607559 4.555212 -0.074517
v 6.607559 4.555212 0.076109
v 6.383581 4.515865 -0.074517
v 6.383581 4.515865 0.076109
v 6.591977 4.146950 -0.074517
v 6.591978 4.146950 0.076109
v 6.372609 4.153704 -0.074517
v 6.372609 4.153704 0.076109
v 6.647673 4.088887 -0.074517
v 6.647673 4.088887 0.076109
v 6.370679 4.091031 -0.074517
v 6.370679 4.091031 0.076109
v 6.352555 2.816777 0.016280
v 6.336276 2.816777 0.023023
v 6.319996 2.816777 0.016280
v 6.642338 3.399519 -0.074517
v 6.642338 3.399519 0.076109
v 6.365344 3.401662 -0.074517
v 6.365344 3.401662 0.076109
v 6.313252 2.816777 0.000000
v 6.319996 2.816777 -0.016279
v 6.336276 2.816777 -0.023022
v 6.688259 3.369555 -0.074517
v 6.688259 3.369555 0.076109
v 6.365166 3.369394 -0.074517
v 6.365166 3.369394 0.076109
v 6.688259 3.210510 -0.074517
v 6.688259 3.210510 0.076109
v 6.298321 3.210348 -0.074517
v 6.298321 3.210348 0.076109
v 6.586839 3.139055 -0.074517
v 6.586839 3.139055 0.076109
v 6.296016 3.134284 -0.074517
v 6.296016 3.134284 0.076109
v 6.589370 2.984813 -0.074517
v 6.589370 2.984813 0.076109
v 6.298546 2.980041 -0.074517
v 6.298546 2.980041 0.076109
v 6.359298 2.816777 0.000000
v 6.352555 2.816777 -0.016279
v 6.359739 2.984850 0.023464
v 6.336276 2.984850 0.033184
v 6.312811 2.984850 0.023464
v 6.303092 2.984850 0.000000
v 6.312811 2.984850 -0.023464
v 6.336276 2.984850 -0.033183
v 6.369459 2.984850 0.000000
v 6.359739 2.984850 -0.023464
v 6.336276 2.878396 -0.032299
v 6.313436 2.878396 -0.022839
v 6.336276 2.878396 0.032300
v 6.359115 2.878396 0.022840
v 6.368575 2.878396 0.000000
v 6.359115 2.878396 -0.022839
v 6.313436 2.878396 0.022840
v 6.303976 2.878396 0.000000
v 6.119129 5.831416 -0.108250
v 6.034135 6.328336 -0.109516
v 6.194112 5.846805 -0.076544
v 6.109994 6.343904 -0.077439
v 6.225170 5.853179 0.000001
v 6.141417 6.350352 0.000001
v 6.194112 5.846805 0.076546
v 6.109994 6.343904 0.077441
v 6.119129 5.831416 0.108252
v 6.034135 6.328336 0.109518
v 6.044147 5.816028 0.076546
v 5.958276 6.312767 0.077441
v 6.013089 5.809653 0.000001
v 5.926854 6.306318 0.000001
v 6.044147 5.816028 -0.076544
v 5.958276 6.312767 -0.077439
v 6.119129 5.831416 -0.081885
v 6.175849 5.843057 -0.057901
v 6.199344 5.847878 0.000001
v 6.175849 5.843057 0.057903
v 6.119129 5.831416 0.081887
v 6.062409 5.819776 0.057903
v 6.038915 5.814954 0.000001
v 6.062409 5.819776 -0.057901
v 6.270875 5.068844 -0.081885
v 6.328279 5.076427 -0.057901
v 6.352057 5.079568 0.000001
v 6.328279 5.076427 0.057903
v 6.270875 5.068844 0.081887
v 6.213472 5.061262 0.057903
v 6.189694 5.058121 0.000001
v 6.213472 5.061262 -0.057902
v 6.276638 4.761511 -0.081885
v 6.334509 4.763407 -0.057902
v 6.358480 4.764193 0.000001
v 6.334509 4.763407 0.057903
v 6.276638 4.761511 0.081887
v 6.218767 4.759614 0.057903
v 6.194796 4.758828 0.000001
v 6.218767 4.759614 -0.057902
v 6.204861 5.697148 0.057903
v 6.228409 5.701650 0.000001
v 6.204861 5.697148 -0.057901
v 6.148010 5.686280 -0.081885
v 6.091160 5.675412 -0.057901
v 6.067612 5.670910 0.000001
v 6.091160 5.675412 0.057903
v 6.148010 5.686280 0.081887
v 6.274283 5.347993 0.057903
v 6.274283 5.347993 -0.057901
v 6.136283 5.326216 0.000001
v 6.217122 5.338972 0.081887
v 6.297960 5.351728 0.000001
v 6.217122 5.338972 -0.081885
v 6.159960 5.329952 -0.057901
v 6.159961 5.329952 0.057903
v 6.215508 5.706118 0.070106
v 6.244029 5.711503 0.000001
v 6.215508 5.706118 -0.070104
v 6.146650 5.693118 -0.099142
v 6.077792 5.680118 -0.070104
v 6.049271 5.674732 0.000001
v 6.077792 5.680118 0.070106
v 6.146650 5.693118 0.099144
v 6.286140 5.350875 0.070105
v 6.286140 5.350875 -0.070104
v 6.119139 5.324029 0.000001
v 6.216966 5.339755 0.099144
v 6.314794 5.355481 0.000001
v 6.216966 5.339755 -0.099142
v 6.147792 5.328635 -0.070104
v 6.147792 5.328635 0.070105
v 6.492789 3.067667 0.123520
v 6.492795 3.067675 -0.123191
v 6.609347 4.116130 0.123322
v 6.609347 4.116130 -0.122994
v 6.537771 4.171489 0.125369
v 6.537771 4.171489 -0.125042
v 6.536054 4.498650 0.125546
v 6.536055 4.498650 -0.125218
v 6.609983 4.541649 0.123302
v 6.609984 4.541649 -0.122975
v 6.603780 5.084713 0.123429
v 6.603780 5.084713 -0.123102
v 6.563975 5.115459 0.125352
v 6.563975 5.115458 -0.125024
v 6.563755 5.252854 0.125450
v 6.563755 5.252854 -0.125122
v 6.610193 5.283693 0.123314
v 6.610193 5.283693 -0.122987
v 6.588724 5.582288 0.125671
v 6.588724 5.582288 -0.125343
v 6.634377 5.605038 0.123526
v 6.634377 5.605038 -0.123199
v 6.686769 5.769653 0.123327
v 6.686769 5.769653 -0.123000
v 6.612004 5.859088 0.125016
v 6.612004 5.859088 -0.124688
v 6.577105 6.361362 0.125198
v 6.577105 6.361362 -0.124870
v 6.639536 6.435400 0.123163
v 6.639536 6.435400 -0.122835
v 6.241735 2.970528 -0.092869
v 6.379540 2.970336 -0.123569
v 6.240049 4.196761 -0.093491
v 6.297635 4.183248 -0.126692
v 6.562249 6.563120 -0.124375
v 6.521062 6.628507 -0.092510
v 6.486763 6.474996 -0.126432
v 6.439910 6.534210 -0.092993
v 6.466412 5.867239 -0.126674
v 6.416224 5.875435 -0.092840
v 6.320465 5.813631 -0.125765
v 6.269411 5.820622 -0.092149
v 6.322100 5.632700 -0.126675
v 6.270128 5.640384 -0.093103
v 6.238975 5.591725 -0.125978
v 6.173971 5.588313 -0.092529
v 6.272911 5.380954 -0.126469
v 6.213147 5.344985 -0.092817
v 6.333097 5.357300 -0.126767
v 6.276994 5.319796 -0.094512
v 6.326863 5.145576 -0.125483
v 6.272226 5.152975 -0.092202
v 6.372972 5.124528 -0.126677
v 6.317551 5.129375 -0.092269
v 6.362204 4.789613 -0.126789
v 6.308959 4.841923 -0.094745
v 6.210797 4.743474 -0.126528
v 6.146391 4.791978 -0.092855
v 6.235409 4.369180 -0.126433
v 6.170379 4.408852 -0.092993
v 6.377263 2.969420 0.123884
v 6.241731 2.970540 0.094471
v 6.295404 4.183896 0.127022
v 6.240056 4.196760 0.095093
v 6.521062 6.628507 0.094104
v 6.560626 6.565809 0.124703
v 6.439910 6.534210 0.094586
v 6.484935 6.477481 0.126759
v 6.416225 5.875437 0.094432
v 6.464416 5.867376 0.127002
v 6.269412 5.820623 0.093742
v 6.318429 5.813875 0.126091
v 6.270128 5.640384 0.094696
v 6.320045 5.632849 0.127003
v 6.173971 5.588313 0.094122
v 6.236349 5.591538 0.126305
v 6.213147 5.344985 0.094410
v 6.270500 5.379529 0.126797
v 6.276994 5.319796 0.096105
v 6.330868 5.355804 0.127095
v 6.272226 5.152974 0.093794
v 6.324667 5.145920 0.125807
v 6.317552 5.129372 0.093859
v 6.370767 5.124964 0.127005
v 6.308958 4.841923 0.096338
v 6.360091 4.791757 0.127116
v 6.146391 4.791978 0.094447
v 6.208190 4.745447 0.126856
v 6.170379 4.408852 0.094586
v 6.232805 4.370956 0.126760
v 6.363753 6.850386 -0.080385
v 6.224091 5.899197 -0.080808
v 6.363753 6.850386 0.081978
v 6.224091 5.899197 0.082401
v 6.477519 6.852960 -0.080305
v 6.477519 6.852960 0.081899
v 6.497656 6.511958 -0.081453
v 6.497656 6.511958 0.083046
v 6.452325 5.837938 -0.080673
v 6.452325 5.837938 0.082266
v 6.328021 5.765524 -0.080356
v 6.328021 5.765524 0.081949
v 7.051959 5.710650 -0.048920
v 6.707448 5.599162 -0.049481
v 7.051959 5.710650 0.050513
v 6.707448 5.599162 0.051073
v 6.559533 5.721026 -0.080211
v 6.559533 5.721026 0.081804
v 7.054723 5.525143 -0.049950
v 7.054723 5.525143 0.051543
v 6.815267 5.458823 -0.050087
v 6.815267 5.458823 0.051680
v 6.818537 5.197177 -0.082262
v 6.818537 5.197177 0.083855
v 6.922518 5.036051 -0.080732
v 6.922518 5.036051 0.082324
v 6.790956 4.647073 -0.080867
v 6.790956 4.647073 0.082460
v 6.576316 4.528788 -0.080069
v 6.576316 4.528788 0.081662
v 6.568850 5.067600 -0.080698
v 6.568850 5.067600 0.082291
v 6.691437 5.155741 -0.083010
v 6.691437 5.155741 0.084603
v 6.682024 5.178104 -0.082232
v 6.682024 5.178104 0.083825
v 6.551975 5.289851 -0.080755
v 6.551975 5.289851 0.082348
v 7.169160 5.728946 -0.046673
v 7.169160 5.728946 0.048266
v 7.147871 5.482138 -0.046633
v 7.147871 5.482138 0.048226
v 6.775238 5.254453 0.084619
v 6.775238 5.254453 -0.083026
v 6.775716 5.402403 0.085530
v 6.775716 5.402403 -0.083938
v 6.725197 5.436932 0.084939
v 6.725197 5.436932 -0.083346
v 6.663678 5.411179 0.084448
v 6.663678 5.411179 -0.082855
v 6.660848 5.262396 0.084287
v 6.660848 5.262396 -0.082694
v 6.718323 5.211869 0.084861
v 6.718323 5.211869 -0.083268
v 6.819520 5.266438 0.082364
v 6.819520 5.266438 -0.080771
v 6.472334 2.775946 -0.055319
v 6.472334 2.676550 -0.057924
v 6.433218 2.775946 -0.039116
v 6.431376 2.676550 -0.040959
v 6.417016 2.775946 0.000000
v 6.414410 2.676550 0.000000
v 6.433218 2.775946 0.039117
v 6.431376 2.676550 0.040959
v 6.472334 2.775946 0.055320
v 6.472334 2.676550 0.057925
v 6.511451 2.775946 0.039117
v 6.513294 2.676550 0.040959
v 6.527654 2.775946 0.000000
v 6.530259 2.676550 0.000000
v 6.511451 2.775946 -0.039116
v 6.513294 2.676550 -0.040959
v 6.241234 2.969255 0.000781
v 6.238419 4.196740 0.000796
v 6.169121 4.408466 0.000796
v 6.521484 6.629536 0.000797
v 6.438617 6.534492 0.000797
v 6.414551 5.875321 0.000796
v 6.268849 5.821360 0.000796
v 6.268479 5.640383 0.000796
v 6.173143 5.589037 0.000796
v 6.212233 5.344191 0.000796
v 6.275024 5.318481 0.000796
v 6.271663 5.152142 0.000796
v 6.315940 5.130042 0.000796
v 6.307070 4.843697 0.000796
v 6.145363 4.792655 0.000796
v 6.494788 3.066616 0.000172
v 6.611288 4.116931 0.000164
v 6.541597 4.173331 0.000164
v 6.539992 4.496459 0.000164
v 6.611810 4.540642 0.000164
v 6.605753 5.085652 0.000164
v 6.567798 5.117249 0.000164
v 6.567634 5.250858 0.000164
v 6.612085 5.282794 0.000164
v 6.592858 5.580052 0.000164
v 6.636133 5.603611 0.000164
v 6.688835 5.770048 0.000164
v 6.615511 5.860482 0.000164
v 6.580923 6.360135 0.000164
v 6.641510 6.435254 0.000164
v 6.378491 2.967045 0.000665
v 6.565465 6.564837 0.000590
v 6.472334 2.655245 -0.076582
v 6.418182 2.655245 -0.054152
v 6.395752 2.655245 0.000000
v 6.418182 2.655245 0.054152
v 6.472334 2.655245 0.076583
v 6.526487 2.655245 0.054152
v 6.548917 2.655245 0.000000
v 6.526487 2.655245 -0.054152
v 6.472334 2.590651 -0.085363
v 6.411973 2.590651 -0.060361
v 6.386971 2.590651 0.000000
v 6.411973 2.590651 0.060361
v 6.472334 2.590651 0.085364
v 6.532696 2.590651 0.060361
v 6.557698 2.590651 0.000000
v 6.532696 2.590651 -0.060361
v 6.472334 2.559123 -0.085381
v 6.411961 2.559123 -0.060374
v 6.386953 2.559123 0.000000
v 6.411961 2.559123 0.060374
v 6.472334 2.559123 0.085382
v 6.532709 2.559123 0.060374
v 6.557716 2.559123 0.000000
v 6.532709 2.559123 -0.060373
v 6.472334 2.100676 -0.064024
v 6.427063 2.100675 -0.045272
v 6.408310 2.100676 0.000000
v 6.427063 2.100675 0.045272
v 6.472334 2.100676 0.064025
v 6.517606 2.100676 0.045272
v 6.536358 2.100675 0.000000
v 6.517606 2.100676 -0.045272
v 6.472334 2.099093 -0.026648
v 6.453492 2.099093 -0.018843
v 6.445687 2.099093 0.000000
v 6.453492 2.099093 0.018843
v 6.472334 2.099093 0.026648
v 6.491178 2.099093 0.018843
v 6.498982 2.099093 0.000000
v 6.491178 2.099093 -0.018843
v 6.472334 2.150008 -0.024828
v 6.454779 2.150008 -0.017556
v 6.447507 2.150008 0.000000
v 6.454779 2.150008 0.017556
v 6.472334 2.150008 0.024828
v 6.489891 2.150008 0.017556
v 6.497162 2.150008 0.000000
v 6.489891 2.150008 -0.017556
v 6.472334 2.785342 -0.113623
v 6.391990 2.785342 -0.080344
v 6.358711 2.785342 0.000000
v 6.391990 2.785342 0.080344
v 6.472334 2.785342 0.113624
v 6.552678 2.785342 0.080344
v 6.585958 2.785342 0.000000
v 6.552678 2.785342 -0.080344
v 6.472334 2.988962 -0.115529
v 6.390643 2.988962 -0.081691
v 6.356805 2.988962 0.000000
v 6.390643 2.988962 0.081692
v 6.472334 2.988962 0.115530
v 6.554026 2.988962 0.081692
v 6.587864 2.988962 0.000000
v 6.554026 2.988962 -0.081691
v 6.612975 4.561418 -0.080187
v 6.612975 4.561418 0.081779
v 6.377470 4.521156 -0.080405
v 6.377470 4.521156 0.081998
v 6.597504 4.149051 -0.082581
v 6.597505 4.149051 0.084174
v 6.365541 4.153920 -0.081588
v 6.365541 4.153920 0.083181
v 6.654879 4.091753 -0.080830
v 6.654879 4.091753 0.082423
v 6.363584 4.091168 -0.081562
v 6.363584 4.091168 0.083154
v 6.357703 2.809922 0.021428
v 6.336276 2.809922 0.030304
v 6.314847 2.809922 0.021428
v 6.647220 3.402138 -0.082842
v 6.647220 3.402138 0.084434
v 6.358271 3.401709 -0.081585
v 6.358271 3.401709 0.083178
v 6.305972 2.809922 0.000000
v 6.314847 2.809922 -0.021428
v 6.336276 2.809922 -0.030303
v 6.695200 3.373314 -0.080657
v 6.695200 3.373314 0.082249
v 6.358727 3.370710 -0.082054
v 6.358727 3.370710 0.083646
v 6.695247 3.206885 -0.080684
v 6.695247 3.206885 0.082276
v 6.291050 3.211929 -0.081199
v 6.291050 3.211929 0.082791
v 6.591825 3.136520 -0.082806
v 6.591825 3.136520 0.084398
v 6.288893 3.134333 -0.081536
v 6.288893 3.134333 0.083128
v 6.595237 2.979135 -0.080290
v 6.595237 2.979135 0.081883
v 6.292868 2.974174 -0.080290
v 6.292868 2.974174 0.081883
v 6.366579 2.809922 0.000000
v 6.357703 2.809922 -0.021428
v 6.366810 2.984767 0.030535
v 6.336276 2.984767 0.043183
v 6.305740 2.984767 0.030535
v 6.293093 2.984767 0.000000
v 6.305740 2.984767 -0.030534
v 6.336276 2.984767 -0.043182
v 6.379458 2.984767 0.000000
v 6.366810 2.984767 -0.030534
v 6.336276 2.877621 -0.042269
v 6.306386 2.877621 -0.029889
v 6.336276 2.877621 0.042270
v 6.366165 2.877621 0.029889
v 6.378545 2.877621 0.000000
v 6.366165 2.877621 -0.029889
v 6.306386 2.877621 0.029889
v 6.294006 2.877621 0.000000
v 6.120337 5.825222 -0.116007
v 6.032931 6.334512 -0.117288
v 6.200691 5.841622 -0.082009
v 6.114210 6.351104 -0.082953
v 6.233962 5.848413 0.000001
v 6.147886 6.357977 0.000001
v 6.200691 5.841623 0.082011
v 6.114210 6.351104 0.082955
v 6.120337 5.825222 0.116009
v 6.032931 6.334512 0.117290
v 6.039946 5.808812 0.082049
v 5.951691 6.317928 0.082917
v 6.006637 5.802013 0.000001
v 5.918051 6.311062 0.000001
v 6.039946 5.808812 -0.082048
v 5.951691 6.317929 -0.082915
v 6.120754 5.823540 -0.087829
v 6.181579 5.836010 -0.062088
v 6.206763 5.841174 0.000001
v 6.181579 5.836010 0.062090
v 6.120754 5.823540 0.087830
v 6.059900 5.811063 0.062121
v 6.034685 5.805892 0.000001
v 6.059900 5.811063 -0.062119
v 6.271091 5.068863 -0.091883
v 6.335409 5.077201 -0.064871
v 6.361998 5.080653 0.000001
v 6.335409 5.077201 0.064872
v 6.271091 5.068863 0.091885
v 6.206557 5.060519 0.065088
v 6.179751 5.057058 0.000001
v 6.206557 5.060519 -0.065087
v 6.276604 4.761513 -0.091885
v 6.341571 4.763547 -0.064980
v 6.368478 4.764394 0.000001
v 6.341571 4.763547 0.064982
v 6.276604 4.761513 0.091887
v 6.211670 4.759490 0.064947
v 6.184797 4.758655 0.000001
v 6.211670 4.759490 -0.064946
v 6.205816 5.706728 0.060606
v 6.230460 5.711437 0.000001
v 6.205816 5.706728 -0.060605
v 6.146310 5.695358 -0.085719
v 6.086788 5.683984 -0.060622
v 6.062127 5.679271 0.000001
v 6.086788 5.683984 0.060624
v 6.146310 5.695358 0.085721
v 6.279903 5.341047 0.062396
v 6.279903 5.341047 -0.062394
v 6.131649 5.317355 0.000001
v 6.218321 5.331202 0.088066
v 6.305481 5.345138 0.000001
v 6.218321 5.331202 -0.088064
v 6.156983 5.321401 -0.062146
v 6.156984 5.321401 0.062148
v 6.218786 5.714283 0.074856
v 6.249240 5.720038 0.000001
v 6.218786 5.714283 -0.074854
v 6.145258 5.700392 -0.105861
v 6.071733 5.686501 -0.074851
v 6.041282 5.680748 0.000001
v 6.071733 5.686501 0.074853
v 6.145258 5.700392 0.105863
v 6.292702 5.345819 0.075708
v 6.292702 5.345819 -0.075706
v 6.112506 5.316545 0.000001
v 6.218016 5.333688 0.107023
v 6.323655 5.350847 0.000001
v 6.218016 5.333688 -0.107022
v 6.143394 5.321564 -0.075641
v 6.143394 5.321564 0.075643
vn -0.0000 -0.0000 -1.0000
vn 0.0844 -0.0213 -0.9962
vn 0.0372 0.0633 -0.9973
vn 0.1540 -0.0910 -0.9839
vn -0.9873 -0.1588 -0.0000
vn -0.9988 -0.0483 -0.0000
vn -1.0000 -0.0000 -0.0000
vn 0.9938 -0.1108 -0.0000
vn -0.0000 -0.0000 1.0000
vn 0.0388 0.0654 0.9971
vn 0.0847 -0.0210 0.9962
vn 0.6268 0.7792 -0.0000
vn 1.0000 0.0040 -0.0000
vn 0.5238 -0.8518 -0.0000
vn 0.9999 0.0118 -0.0000
vn 0.6402 0.7682 -0.0000
vn 1.0000 -0.0000 -0.0000
vn 0.5812 -0.8137 -0.0000
vn 0.9980 0.0637 -0.0000
vn 0.4930 -0.8700 -0.0000
vn 0.9524 -0.3048 -0.0000
vn 0.7727 0.6347 -0.0000
vn 0.9976 0.0686 -0.0000
vn 0.7710 -0.6369 -0.0000
vn -0.1850 0.0241 -0.9824
vn -0.1164 0.0950 -0.9887
vn -0.9993 0.0382 -0.0000
vn 0.1293 0.0410 -0.9908
vn 0.0293 0.1976 -0.9798
vn 0.0235 0.0425 -0.9988
vn 0.1011 -0.0217 -0.9946
vn 0.0505 0.0462 -0.9977
vn 0.0387 -0.0396 -0.9985
vn 0.1403 -0.0972 -0.9853
vn 0.8562 0.5167 -0.0000
vn -0.9977 -0.0671 -0.0000
vn -0.2993 0.9541 -0.0000
vn -0.9995 0.0319 -0.0000
vn -0.4472 -0.8944 -0.0000
vn -0.5736 -0.5973 -0.5606
vn -0.5341 -0.7378 -0.4128
vn -0.9998 0.0191 -0.0000
vn -0.3853 -0.9228 -0.0000
vn -0.9871 -0.1601 -0.0000
vn -0.4706 0.8824 -0.0000
vn -0.3466 0.9380 -0.0000
vn -0.7727 0.6347 -0.0000
vn -0.1115 0.0910 0.9896
vn -0.1774 0.0231 0.9839
vn 0.1426 -0.0984 0.9849
vn 0.1572 -0.0933 0.9831
vn 0.0413 -0.0406 0.9983
vn 0.0529 0.0484 0.9974
vn 0.1050 -0.0225 0.9942
vn 0.0265 0.0429 0.9987
vn 0.2021 0.0054 0.9794
vn 0.1316 0.0418 0.9904
vn -0.3044 -0.0098 -0.9525
vn -0.3245 -0.0240 -0.9456
vn -0.4260 -0.1262 -0.8959
vn -0.2464 0.0493 -0.9679
vn -0.5000 0.0651 -0.8636
vn -0.3034 0.2477 -0.9201
vn -0.5019 0.2733 -0.8206
vn -0.4258 0.5151 -0.7439
vn -0.4248 0.4971 -0.7566
vn -0.4893 0.2708 -0.8290
vn -0.4991 0.2397 -0.8327
vn -0.4551 0.4263 -0.7818
vn -0.4332 0.3402 -0.8346
vn -0.4375 0.1547 -0.8858
vn -0.1871 -0.4555 -0.8703
vn -0.3864 -0.1523 -0.9097
vn -0.3824 -0.2627 -0.8859
vn -0.3586 -0.2298 -0.9048
vn -0.5138 -0.5785 -0.6336
vn -0.5262 -0.2299 -0.8187
vn -0.3354 0.2763 -0.9007
vn -0.3365 0.2089 -0.9182
vn -0.4428 0.2897 -0.8485
vn -0.2951 0.2069 -0.9328
vn -0.6263 -0.0148 -0.7794
vn -0.4772 -0.0753 -0.8756
vn -0.3193 -0.0237 0.9473
vn -0.2990 -0.0097 0.9542
vn -0.2411 0.0500 0.9692
vn -0.4244 -0.1281 0.8964
vn -0.3033 0.2477 0.9201
vn -0.5000 0.0651 0.8636
vn -0.5019 0.2734 0.8206
vn -0.4257 0.5153 0.7438
vn -0.4247 0.4974 0.7565
vn -0.4892 0.2710 0.8290
vn -0.4991 0.2397 0.8327
vn -0.4551 0.4262 0.7818
vn -0.4667 0.4502 0.7613
vn -0.4375 0.1547 0.8858
vn -0.4851 -0.1531 0.8609
vn -0.3865 -0.1522 0.9097
vn -0.3841 -0.2631 0.8850
vn -0.3586 -0.2298 0.9048
vn -0.5196 -0.4974 0.6947
vn -0.5762 -0.5984 0.5566
vn -0.5432 -0.2033 0.8147
vn -0.5074 -0.7553 0.4148
vn -0.3372 0.2773 0.8997
vn -0.3365 0.2089 0.9182
vn -0.4453 0.2904 0.8470
vn -0.2951 0.2069 0.9328
vn -0.6286 -0.0120 0.7776
vn -0.4772 -0.0754 0.8755
vn 0.6505 -0.7595 -0.0009
vn 0.6515 -0.7586 0.0017
vn -0.9895 0.1443 -0.0000
vn -0.0256 0.9997 -0.0000
vn 0.9985 0.0550 -0.0000
vn 0.9997 -0.0262 -0.0000
vn 0.9978 -0.0668 -0.0000
vn 0.5087 -0.8609 -0.0000
vn -0.7934 -0.6087 -0.0000
vn -0.2727 0.9621 -0.0000
vn -0.3025 0.9532 -0.0000
vn 0.6474 0.7621 -0.0000
vn -0.1721 0.9851 -0.0000
vn 0.2764 -0.9611 -0.0000
vn 0.9999 0.0105 -0.0000
vn 0.8430 0.5379 -0.0000
vn 0.9472 -0.3208 -0.0000
vn 0.4933 -0.8698 -0.0000
vn -1.0000 -0.0087 -0.0000
vn -0.5984 0.8012 -0.0000
vn -0.9487 -0.3162 -0.0000
vn -0.6560 -0.7548 -0.0000
vn -1.0000 0.0094 -0.0000
vn 0.9964 -0.0847 -0.0000
vn 0.0027 -0.0001 -1.0000
vn 0.0093 -0.0004 -1.0000
vn -0.4272 -0.9041 -0.0000
vn 0.0027 -0.0001 1.0000
vn 0.0093 -0.0004 1.0000
vn -1.0000 -0.0069 -0.0000
vn -0.5584 -0.8296 -0.0000
vn 0.3921 -0.9199 -0.0000
vn 0.9998 -0.0207 -0.0000
vn 0.6465 0.7629 -0.0000
vn -0.5865 0.8099 -0.0000
vn 0.9999 0.0106 -0.0000
vn 0.2384 0.0572 0.9695
vn 0.0773 0.0485 0.9958
vn 0.3217 0.2017 0.9251
vn 0.0897 0.0650 0.9938
vn 0.2332 0.1690 0.9576
vn 0.0902 0.0531 0.9945
vn 0.0773 0.0485 -0.9958
vn 0.0897 0.0650 -0.9938
vn 0.3217 0.2017 -0.9251
vn 0.2332 0.1690 -0.9576
vn 0.2384 0.0572 -0.9695
vn 0.0902 0.0531 -0.9945
vn -0.3827 -0.0000 -0.9239
vn -0.9239 -0.0000 -0.3827
vn -0.9239 -0.0000 0.3827
vn -0.3827 -0.0000 0.9239
vn 0.3827 -0.0000 0.9239
vn 0.9239 -0.0000 0.3827
vn 0.9239 -0.0000 -0.3827
vn 0.3827 -0.0000 -0.9239
vn 0.6526 -0.7577 0.0042
vn 0.0031 -1.0000 -0.0022
vn 0.0015 -1.0000 0.0012
vn 0.0030 -1.0000 -0.0021
vn 0.0045 -1.0000 -0.0054
vn -0.5322 0.6585 -0.5322
vn -0.0000 0.6585 -0.7526
vn -0.0000 0.3873 -0.9220
vn -0.6519 0.3873 -0.6519
vn -0.0000 0.6585 0.7526
vn -0.5322 0.6585 0.5322
vn -0.6519 0.3873 0.6519
vn -0.0000 0.3873 0.9220
vn 0.5322 0.6585 -0.5322
vn 0.7526 0.6585 -0.0000
vn 0.9220 0.3873 -0.0000
vn 0.6519 0.3873 -0.6519
vn -0.7526 0.6585 -0.0000
vn -0.9220 0.3873 -0.0000
vn 0.5322 0.6585 0.5322
vn 0.6519 0.3873 0.6519
vn -0.9977 0.0645 0.0221
vn -0.7045 0.0860 0.7045
vn -0.0221 0.0645 -0.9977
vn -0.7045 0.0860 -0.7045
vn 0.6899 0.0645 -0.7211
vn 0.7211 0.0645 0.6899
vn 0.9963 0.0860 -0.0000
vn -0.0000 0.0860 0.9963
vn 0.9996 -0.0210 -0.0188
vn 0.7071 -0.0021 -0.7071
vn 0.0187 -0.0210 0.9996
vn 0.7071 -0.0021 0.7071
vn -0.9996 -0.0210 0.0188
vn -0.7071 -0.0021 0.7071
vn -0.0187 -0.0210 -0.9996
vn -0.7071 -0.0022 -0.7071
vn -0.7065 -0.0420 0.7065
vn -0.0000 -0.0420 0.9991
vn -0.7065 -0.0420 -0.7065
vn -0.9991 -0.0420 -0.0000
vn 0.9991 -0.0420 -0.0000
vn 0.7065 -0.0420 -0.7065
vn 0.7065 -0.0420 0.7065
vn -0.0000 -0.0420 -0.9991
vn -0.0000 -1.0000 -0.0000
vn -0.0959 -0.9908 -0.0959
vn -0.1356 -0.9908 -0.0000
vn -0.0000 -0.9908 0.1356
vn 0.0959 -0.9908 0.0959
vn 0.0959 -0.9908 -0.0959
vn -0.0000 -0.9908 -0.1356
vn -0.0959 -0.9908 0.0959
vn 0.1356 -0.9908 -0.0000
vn -0.7071 -0.0000 0.7071
vn -0.0000 -0.8042 0.5944
vn -0.4203 -0.8042 0.4203
vn -0.7071 -0.0000 -0.7071
vn -0.5944 -0.8042 -0.0000
vn -0.4203 -0.8042 -0.4203
vn 0.7071 -0.0000 -0.7071
vn 0.4203 -0.8042 -0.4203
vn 0.5944 -0.8042 -0.0000
vn 0.7071 -0.0000 0.7071
vn 0.4203 -0.8042 0.4203
vn -0.0000 -0.8042 -0.5944
vn -0.1730 0.9849 -0.0000
vn 0.7217 0.6922 -0.0000
vn 0.9993 -0.0381 -0.0000
vn -0.9995 0.0303 -0.0000
vn -0.9995 0.0302 -0.0000
vn -1.0000 0.0097 -0.0000
vn -1.0000 0.0076 -0.0000
vn 1.0000 -0.0077 -0.0000
vn 0.7036 -0.1007 -0.7035
vn 0.4150 -0.8097 -0.4150
vn 0.5869 -0.8097 -0.0000
vn 0.9968 -0.0766 0.0233
vn -0.7035 -0.1007 -0.7036
vn -0.4150 -0.8097 -0.4150
vn -0.0000 -0.8097 -0.5869
vn 0.0233 -0.0766 -0.9968
vn 0.5465 0.8375 -0.0000
vn 0.7035 -0.1007 0.7036
vn 0.4150 -0.8097 0.4150
vn -0.0000 -0.8097 0.5869
vn -0.0233 -0.0766 0.9968
vn -0.9438 0.3306 -0.0000
vn -0.4150 -0.8097 0.4150
vn -0.7213 -0.0766 0.6884
vn -0.9594 0.2822 -0.0000
vn 0.5760 -0.8175 -0.0000
vn -1.0000 -0.0010 -0.0000
vn 0.0164 -0.9999 -0.0000
vn -0.9999 -0.0164 -0.0000
vn 0.9999 0.0164 -0.0000
vn -0.9949 -0.1007 -0.0001
vn -0.5869 -0.8097 -0.0000
vn 0.9889 -0.1489 -0.0000
vn 0.6992 -0.1489 0.6992
vn -0.6992 -0.1489 0.6992
vn -0.9889 -0.1489 -0.0000
vn -0.6992 -0.1489 -0.6992
vn -0.0000 -0.1489 -0.9889
vn 0.6992 -0.1489 -0.6992
vn -0.0000 -0.1489 0.9889
vn 0.3778 0.0623 -0.9238
vn 0.9111 0.1535 -0.3825
vn 0.9111 0.1535 0.3825
vn 0.3778 0.0623 0.9238
vn -0.3769 -0.0668 0.9238
vn -0.9103 -0.1581 0.3825
vn -0.9103 -0.1581 -0.3825
vn -0.3769 -0.0668 -0.9238
vn 0.2010 -0.9796 -0.0000
vn 0.9064 0.1802 0.3821
vn 0.9188 0.0946 0.3831
vn 0.9188 0.0947 0.3831
vn 0.3759 0.0748 -0.9236
vn 0.3802 0.0392 -0.9241
vn -0.3759 -0.0748 -0.9236
vn -0.3802 -0.0392 -0.9241
vn -0.3802 -0.0391 -0.9241
vn -0.9063 -0.1805 0.3821
vn -0.9188 -0.0948 0.3832
vn 0.3759 0.0748 0.9236
vn 0.3802 0.0392 0.9241
vn 0.9064 0.1802 -0.3821
vn 0.9188 0.0947 -0.3831
vn 0.9188 0.0946 -0.3831
vn -0.9063 -0.1805 -0.3821
vn -0.9188 -0.0947 -0.3832
vn -0.3759 -0.0748 0.9236
vn -0.3802 -0.0393 0.9241
vn -0.4406 0.7968 -0.4135
vn -0.6081 0.7939 -0.0000
vn -0.4406 0.7968 0.4135
vn -0.0262 0.8042 0.5938
vn 0.3997 0.8122 0.4250
vn 0.5786 0.8156 -0.0000
vn 0.3997 0.8122 -0.4250
vn -0.0262 0.8042 -0.5938
vn -0.3754 -0.0747 0.9238
vn -0.9061 -0.1805 -0.3826
vn 0.9062 0.1801 -0.3826
vn 0.3754 0.0747 0.9239
vn -0.9061 -0.1805 0.3826
vn -0.3754 -0.0747 -0.9238
vn 0.3754 0.0747 -0.9239
vn 0.9062 0.1801 0.3826
vn -0.1714 0.9112 -0.3746
vn 0.0920 0.9592 -0.2675
vn 0.0919 0.9591 -0.2676
vn -0.1713 0.9112 -0.3746
vn 0.1969 -0.9797 -0.0379
vn 0.1594 -0.9861 -0.0462
vn 0.1968 -0.9797 -0.0380
vn -0.5348 0.8450 -0.0000
vn -0.4294 0.8642 -0.2622
vn 0.1325 -0.9908 -0.0274
vn 0.1325 -0.9908 -0.0273
vn -0.1715 0.9112 0.3746
vn -0.4295 0.8642 0.2621
vn -0.4294 0.8642 0.2622
vn -0.1713 0.9112 0.3746
vn 0.1244 -0.9922 -0.0000
vn 0.1325 -0.9908 0.0274
vn 0.1325 -0.9908 0.0273
vn 0.0920 0.9592 0.2674
vn 0.0919 0.9591 0.2676
vn 0.1594 -0.9861 0.0462
vn 0.1969 -0.9797 0.0379
vn 0.1968 -0.9797 0.0380
vn -0.3756 -0.0748 0.9238
vn -0.9062 -0.1805 -0.3824
vn 0.9063 0.1802 -0.3824
vn 0.3756 0.0747 0.9238
vn -0.9062 -0.1805 0.3824
vn -0.3756 -0.0748 -0.9238
vn 0.3756 0.0747 -0.9238
vn 0.9063 0.1802 0.3824
vn 0.2154 -0.9765 -0.0000
vn 0.2025 0.9793 -0.0000
vn -0.2010 0.9796 -0.0000
vn -0.0097 0.0014 1.0000
vn -0.0091 0.0019 1.0000
vn 0.0504 -0.0417 0.9979
vn -0.0842 0.0465 0.9954
vn -0.0061 0.0029 1.0000
vn 0.1040 0.1433 0.9842
vn 0.9816 0.1884 0.0295
vn 0.9802 0.1575 -0.1204
vn 0.9993 0.0334 0.0137
vn 0.9870 0.1599 0.0137
vn 0.9993 0.0334 -0.0137
vn 0.9999 0.0018 -0.0114
vn 1.0000 0.0018 -0.0000
vn -0.9939 0.1104 -0.0000
vn -0.9938 0.1104 -0.0160
vn -0.0089 0.0019 -1.0000
vn -0.0096 0.0014 -1.0000
vn -0.0839 0.0473 -0.9954
vn 0.0527 -0.0431 -0.9977
vn -0.6206 -0.7841 -0.0000
vn -0.6205 -0.7839 0.0228
vn -1.0000 -0.0051 -0.0000
vn -0.9995 -0.0051 0.0310
vn -0.5136 0.8580 -0.0000
vn -0.5135 0.8578 0.0229
vn -0.9999 -0.0113 -0.0000
vn -0.9998 -0.0113 0.0154
vn -0.6259 -0.7799 -0.0000
vn -0.6257 -0.7797 0.0232
vn -1.0000 -0.0014 -0.0000
vn -0.9995 -0.0014 0.0307
vn -0.5687 0.8226 -0.0000
vn -0.5685 0.8224 0.0228
vn -0.9977 -0.0680 -0.0000
vn -0.9974 -0.0680 0.0233
vn -0.4623 0.8867 -0.0000
vn -0.4622 0.8865 0.0240
vn -0.9531 0.3026 -0.0000
vn -0.9530 0.3025 0.0160
vn -0.7721 -0.6355 -0.0000
vn -0.7719 -0.6353 0.0219
vn -0.9976 -0.0692 -0.0000
vn -0.9972 -0.0692 0.0293
vn -0.7716 0.6361 -0.0000
vn -0.7714 0.6360 0.0215
vn -0.0185 -0.0017 0.9998
vn -0.0246 -0.0043 0.9997
vn 0.1552 -0.0892 0.9838
vn 0.1978 -0.0981 0.9753
vn 0.9993 -0.0362 -0.0000
vn 0.9992 -0.0362 0.0158
vn -0.0102 0.0133 0.9999
vn -0.0101 0.0136 0.9999
vn -0.0086 0.0065 0.9999
vn -0.0088 0.0040 1.0000
vn -0.0088 -0.0035 1.0000
vn -0.0078 -0.0063 1.0000
vn -0.0063 -0.0044 1.0000
vn 0.0388 -0.1288 0.9909
vn -0.0146 -0.0196 0.9997
vn 0.1930 -0.0136 0.9811
vn -0.0157 -0.0246 0.9996
vn 0.0271 -0.0317 0.9991
vn -0.0068 0.0012 1.0000
vn 0.0270 0.1027 0.9943
vn -0.0139 -0.0000 0.9999
vn 0.0533 0.0219 0.9983
vn -0.0113 0.0001 0.9999
vn 0.0360 -0.0267 0.9990
vn -0.0064 0.0002 1.0000
vn 0.1347 -0.0963 0.9862
vn -0.8589 -0.5117 -0.0214
vn -0.8481 -0.5295 -0.0209
vn -0.8470 -0.5317 0.0001
vn -0.8591 -0.5119 -0.0000
vn 0.9981 0.0621 -0.0000
vn 0.9980 0.0621 0.0121
vn 0.2974 -0.9547 -0.0000
vn 0.2974 -0.9546 0.0169
vn 0.9995 -0.0305 -0.0000
vn 0.9994 -0.0305 0.0189
vn 0.4544 0.8908 -0.0000
vn 0.5555 0.5976 0.5782
vn 0.5759 0.6008 0.5545
vn 0.9997 -0.0243 -0.0000
vn 0.9996 -0.0243 0.0132
vn 0.3731 0.9278 -0.0000
vn 0.3731 0.9277 0.0161
vn 0.9874 0.1583 -0.0000
vn 0.9873 0.1583 0.0093
vn 0.4752 -0.8799 -0.0000
vn 0.4752 -0.8798 0.0097
vn 1.0000 0.0009 -0.0000
vn 0.9999 0.0009 0.0118
vn 0.3486 -0.9373 -0.0000
vn 0.3485 -0.9373 0.0073
vn 0.7558 -0.6548 -0.0000
vn 0.7558 -0.6547 0.0081
vn -0.0245 -0.0044 -0.9997
vn -0.0183 -0.0017 -0.9998
vn 0.1920 -0.0986 -0.9764
vn 0.1543 -0.0843 -0.9844
vn -0.0063 0.0002 -1.0000
vn -0.0060 0.0029 -1.0000
vn 0.1062 0.1466 -0.9835
vn 0.1367 -0.0981 -0.9857
vn -0.0112 0.0001 -0.9999
vn 0.0376 -0.0290 -0.9989
vn -0.0138 -0.0000 -0.9999
vn 0.0565 0.0231 -0.9981
vn -0.0067 0.0013 -1.0000
vn 0.0281 0.1066 -0.9939
vn -0.0155 -0.0247 -0.9996
vn 0.0291 -0.0291 -0.9992
vn -0.0143 -0.0194 -0.9997
vn 0.0453 0.1960 -0.9796
vn -0.0062 -0.0044 -1.0000
vn 0.0396 -0.1311 -0.9906
vn -0.0087 -0.0036 -1.0000
vn -0.0077 -0.0063 -1.0000
vn -0.0085 0.0065 -0.9999
vn -0.0088 0.0039 -1.0000
vn -0.0100 0.0133 -0.9999
vn -0.0099 0.0136 -0.9999
vn 0.3116 0.0121 0.9501
vn 0.2544 -0.0558 0.9655
vn 0.3370 0.1109 0.9350
vn 0.5867 0.0589 0.8077
vn 0.2985 -0.2690 0.9157
vn 0.3713 -0.0416 0.9276
vn 0.4341 -0.4924 0.7544
vn 0.5054 -0.2923 0.8119
vn 0.4976 -0.2770 0.8220
vn 0.4292 -0.4855 0.7616
vn 0.4641 -0.4123 0.7839
vn 0.5076 -0.2549 0.8230
vn 0.4539 -0.1615 0.8763
vn 0.4671 -0.3660 0.8049
vn 0.4144 0.1873 0.8906
vn 0.1932 0.4107 0.8911
vn 0.3690 0.2383 0.8984
vn 0.3214 0.2237 0.9201
vn 0.4446 0.5367 0.7172
vn 0.4891 0.2242 0.8429
vn 0.3485 -0.2203 0.9110
vn 0.2698 -0.2226 0.9368
vn 0.3133 -0.2137 0.9253
vn 0.2009 -0.1199 0.9722
vn 0.4848 0.0759 0.8713
vn 0.4363 -0.0175 0.8996
vn 0.5879 0.0595 -0.8067
vn 0.3319 0.1120 -0.9366
vn 0.2485 -0.0554 -0.9671
vn 0.3067 0.0120 -0.9517
vn 0.3720 -0.0417 -0.9273
vn 0.2989 -0.2695 -0.9154
vn 0.5055 -0.2932 -0.8115
vn 0.4343 -0.4916 -0.7547
vn 0.4294 -0.4852 -0.7617
vn 0.4979 -0.2773 -0.8217
vn 0.5079 -0.2556 -0.8226
vn 0.4645 -0.4116 -0.7841
vn 0.3753 -0.3935 -0.8392
vn 0.4546 -0.1616 -0.8759
vn 0.3894 0.1149 -0.9139
vn 0.4151 0.1877 -0.8902
vn 0.3205 0.2222 -0.9208
vn 0.3694 0.2386 -0.8981
vn 0.5096 0.5107 -0.6925
vn 0.5742 0.6031 -0.5536
vn 0.5065 0.1892 -0.8412
vn 0.5278 0.5999 -0.6013
vn 0.2686 -0.2211 -0.9375
vn 0.3490 -0.2208 -0.9107
vn 0.2001 -0.1185 -0.9726
vn 0.3139 -0.2141 -0.9250
vn 0.4351 -0.0210 -0.9001
vn 0.4855 0.0761 -0.8709
vn -0.6490 0.7605 -0.0191
vn -0.6501 0.7598 -0.0016
vn -0.6501 0.7598 -0.0018
vn 0.9894 -0.1453 -0.0000
vn 0.0226 -0.9997 -0.0000
vn -0.9983 -0.0590 -0.0000
vn -0.9997 0.0234 0.0001
vn -0.9997 0.0234 -0.0001
vn -0.9977 0.0671 -0.0000
vn -0.5034 0.8641 -0.0000
vn 0.7895 0.6138 -0.0000
vn -0.0006 -0.0000 -1.0000
vn 0.0057 -0.0005 -1.0000
vn -0.0001 -0.0000 -1.0000
vn 0.0066 -0.0005 -1.0000
vn 0.0057 -0.0005 1.0000
vn -0.0006 -0.0000 1.0000
vn -0.0001 -0.0000 1.0000
vn 0.0066 -0.0005 1.0000
vn 0.2650 -0.9643 -0.0006
vn 0.3079 -0.9514 -0.0000
vn 0.2650 -0.9643 0.0006
vn -0.6359 -0.7718 -0.0000
vn 0.1542 -0.9880 -0.0000
vn -0.2669 0.9637 -0.0000
vn -1.0000 -0.0029 -0.0000
vn -0.9999 0.0142 -0.0000
vn -0.8402 -0.5422 -0.0000
vn -0.9473 0.3204 -0.0000
vn -0.4827 0.8758 -0.0000
vn 0.9999 0.0139 -0.0000
vn 0.5838 -0.8119 -0.0000
vn 0.9217 0.3880 -0.0000
vn 0.6517 0.7585 -0.0000
vn 0.9998 -0.0175 -0.0000
vn -0.9963 0.0859 -0.0000
vn -0.0117 -0.0032 0.9999
vn -0.0266 -0.0012 0.9996
vn -0.0128 -0.0015 0.9999
vn 0.4192 0.9079 -0.0000
vn -0.0128 -0.0015 -0.9999
vn -0.0266 -0.0011 -0.9996
vn -0.0116 -0.0032 -0.9999
vn 1.0000 -0.0032 -0.0000
vn 0.5643 0.8256 -0.0000
vn -0.3861 0.9224 -0.0000
vn -0.9998 0.0190 -0.0000
vn -0.6603 -0.7510 -0.0000
vn 0.5991 -0.8007 -0.0000
vn 0.0035 0.0028 -1.0000
vn 0.0072 0.0034 -1.0000
vn -0.0049 0.0014 -1.0000
vn -0.0079 0.0031 -1.0000
vn 0.0071 0.0095 -0.9999
vn 0.0018 0.0091 -1.0000
vn -0.0097 0.0063 -0.9999
vn -0.9998 -0.0221 -0.0000
vn -0.0682 -0.1564 -0.9853
vn -0.2092 -0.0520 -0.9765
vn -0.2938 -0.1888 -0.9371
vn -0.1044 0.0125 -0.9945
vn -0.2321 -0.2356 -0.9437
vn -0.0937 -0.1848 -0.9783
vn -0.0738 -0.0638 -0.9952
vn -0.0598 -0.0663 -0.9960
vn 0.0199 0.0013 -0.9998
vn 0.0200 0.0067 -0.9998
vn -0.0937 -0.1848 0.9783
vn -0.1044 0.0125 0.9945
vn -0.2938 -0.1888 0.9371
vn -0.2321 -0.2356 0.9437
vn -0.2092 -0.0520 0.9765
vn -0.0682 -0.1564 0.9853
vn 0.0018 0.0091 1.0000
vn -0.0097 0.0063 0.9999
vn 0.0071 0.0095 0.9999
vn -0.0079 0.0031 1.0000
vn 0.0072 0.0034 1.0000
vn 0.0035 0.0028 1.0000
vn -0.0049 0.0014 1.0000
vn 0.0199 0.0013 0.9998
vn 0.0200 0.0067 0.9998
vn -0.0738 -0.0638 0.9952
vn -0.0598 -0.0663 0.9960
vn 0.3826 -0.0242 0.9236
vn 0.9236 -0.0242 0.3826
vn 0.9236 -0.0242 -0.3826
vn 0.3826 -0.0242 -0.9236
vn -0.3826 -0.0242 -0.9236
vn -0.9236 -0.0242 -0.3826
vn -0.9236 -0.0242 0.3826
vn -0.3826 -0.0242 0.9236
vn 0.7558 -0.6547 -0.0081
vn 0.3485 -0.9373 -0.0073
vn 0.9999 0.0009 -0.0118
vn 0.4752 -0.8798 -0.0097
vn 0.9873 0.1583 -0.0093
vn 0.3731 0.9277 -0.0161
vn 0.9996 -0.0243 -0.0132
vn 0.9994 -0.0305 -0.0189
vn 0.2974 -0.9546 -0.0169
vn 0.9980 0.0621 -0.0121
vn 0.9870 0.1599 -0.0137
vn 0.9992 -0.0362 -0.0159
vn 0.9999 0.0018 0.0114
vn -0.7714 0.6360 -0.0215
vn -0.9972 -0.0692 -0.0293
vn -0.7719 -0.6353 -0.0219
vn -0.9530 0.3025 -0.0160
vn -0.4622 0.8865 -0.0240
vn -0.9974 -0.0680 -0.0233
vn -0.5685 0.8224 -0.0228
vn -0.9995 -0.0014 -0.0307
vn -0.6257 -0.7797 -0.0232
vn -0.9998 -0.0113 -0.0154
vn -0.5135 0.8578 -0.0229
vn -0.9995 -0.0051 -0.0310
vn -0.6205 -0.7839 -0.0228
vn -0.9938 0.1103 0.0160
vn -0.6510 0.7589 0.0158
vn 0.0125 0.9999 0.0022
vn 0.0126 0.9999 0.0021
vn 0.0140 0.9998 -0.0168
vn 0.0111 0.9997 0.0210
vn -0.8341 -0.5516 0.0002
vn -0.8341 -0.5512 0.0208
vn -0.8484 -0.5289 0.0211
vn -0.8338 -0.5517 -0.0203
vn -0.8589 -0.5117 0.0212
vn 0.5320 -0.6588 0.5320
vn 0.6511 -0.3899 0.6511
vn -0.0000 -0.3899 0.9209
vn -0.0000 -0.6588 0.7523
vn -0.0000 -0.6588 -0.7523
vn -0.0000 -0.3899 -0.9209
vn 0.6511 -0.3899 -0.6511
vn 0.5320 -0.6588 -0.5320
vn -0.5320 -0.6588 0.5320
vn -0.6511 -0.3899 0.6511
vn -0.9209 -0.3899 -0.0000
vn -0.7523 -0.6588 -0.0000
vn 0.7523 -0.6588 -0.0000
vn 0.9209 -0.3899 -0.0000
vn -0.5320 -0.6588 -0.5320
vn -0.6511 -0.3899 -0.6511
vn 0.6938 -0.0662 -0.7171
vn 0.9987 -0.0503 -0.0000
vn 0.7171 -0.0662 0.6938
vn -0.0000 -0.0503 0.9987
vn -0.7062 -0.0503 0.7062
vn -0.9977 -0.0662 0.0164
vn -0.7062 -0.0503 -0.7062
vn -0.0164 -0.0662 -0.9977
vn -0.6967 0.0227 0.7170
vn -0.9993 0.0372 -0.0000
vn -0.7170 0.0227 -0.6967
vn -0.0000 0.0372 -0.9993
vn 0.6967 0.0227 -0.7170
vn 0.9993 0.0372 -0.0000
vn 0.7170 0.0227 0.6967
vn -0.0000 0.0372 0.9993
vn -0.0000 0.0465 -0.9989
vn 0.7063 0.0465 -0.7063
vn 0.9989 0.0465 -0.0000
vn 0.7063 0.0465 0.7063
vn -0.7063 0.0465 0.7063
vn -0.9989 0.0465 -0.0000
vn -0.7063 0.0465 -0.7063
vn -0.0000 0.0465 0.9989
vn 0.0423 0.9991 -0.0000
vn 0.0299 0.9991 -0.0299
vn -0.0000 0.9991 -0.0423
vn -0.0299 0.9991 -0.0299
vn -0.0423 0.9991 -0.0000
vn -0.0299 0.9991 0.0299
vn -0.0000 0.9991 0.0423
vn 0.0299 0.9991 0.0299
vn 0.3825 0.0330 0.9234
vn -0.9234 0.0330 0.3825
vn -0.3825 0.0330 -0.9234
vn 0.3825 0.0330 -0.9234
vn 0.9234 0.0330 0.3825
vn -0.3825 0.0330 0.9234
vn -0.9234 0.0330 -0.3825
vn 0.9234 0.0330 -0.3825
vn -0.0000 1.0000 -0.0000
vn 0.1125 0.9873 0.1125
vn 0.1591 0.9873 -0.0000
vn -0.0000 0.9873 -0.1591
vn -0.1125 0.9873 -0.1125
vn -0.1125 0.9873 0.1125
vn -0.0000 0.9873 0.1591
vn 0.1125 0.9873 -0.1125
vn -0.1591 0.9873 -0.0000
vn 0.7071 0.0094 -0.7071
vn 0.5510 -0.6267 -0.5510
vn -0.0000 -0.6267 -0.7792
vn -0.0000 0.0094 -1.0000
vn 0.7071 0.0094 0.7071
vn 0.5510 -0.6267 0.5510
vn 0.7792 -0.6267 -0.0000
vn 1.0000 0.0094 -0.0000
vn -0.7792 -0.6267 -0.0000
vn -0.5510 -0.6267 0.5510
vn -0.7071 0.0094 0.7071
vn -0.5510 -0.6267 -0.5510
vn -0.7071 0.0094 -0.7071
vn -0.0000 0.0094 1.0000
vn -0.0000 -0.6267 0.7792
vn 0.1685 -0.9857 -0.0000
vn -0.7066 -0.7076 -0.0000
vn 0.0020 -0.0047 -1.0000
vn 0.0012 0.0072 -1.0000
vn 0.0013 0.0053 -1.0000
vn -0.9993 0.0375 -0.0000
vn 0.0020 -0.0047 1.0000
vn 0.0013 0.0053 1.0000
vn 0.0012 0.0072 1.0000
vn 0.9995 -0.0325 -0.0000
vn 0.9995 -0.0315 -0.0000
vn 0.0008 0.0067 1.0000
vn 0.0003 0.0134 0.9999
vn 0.0001 0.0171 0.9999
vn 0.0008 0.0041 1.0000
vn 1.0000 -0.0100 -0.0000
vn 0.0008 0.0041 -1.0000
vn 0.0008 0.0067 -1.0000
vn 0.0001 0.0171 -0.9999
vn -0.0020 0.0097 -1.0000
vn -0.0016 0.0143 -0.9999
vn 0.0003 0.0134 -0.9999
vn 1.0000 0.0026 -0.0000
vn -0.9999 0.0111 -0.0000
vn -0.7163 0.0905 0.6919
vn -0.9974 0.0726 -0.0001
vn -0.7810 -0.6245 -0.0000
vn -0.5523 -0.6245 0.5523
vn 0.6919 0.0905 0.7163
vn -0.0001 0.0726 0.9974
vn -0.0000 -0.6245 0.7810
vn 0.5523 -0.6245 0.5523
vn -0.0016 -0.0027 -1.0000
vn -0.0005 -0.0086 -1.0000
vn -0.5150 -0.8572 -0.0000
vn -0.6919 0.0905 -0.7163
vn 0.0001 0.0726 -0.9974
vn -0.0000 -0.6245 -0.7810
vn -0.5523 -0.6245 -0.5523
vn -0.0016 0.0143 0.9999
vn -0.0020 0.0097 1.0000
vn 0.9375 -0.3480 -0.0008
vn 0.9375 -0.3480 0.0008
vn 0.7053 0.0726 -0.7052
vn 0.5523 -0.6245 -0.5523
vn 0.0014 -0.0061 -1.0000
vn 0.0015 -0.0026 -1.0000
vn -1.0000 -0.0003 -0.0000
vn -0.0005 -0.0086 1.0000
vn -0.0016 -0.0027 1.0000
vn 0.9619 -0.2733 0.0003
vn 0.9619 -0.2733 -0.0003
vn 0.0015 -0.0026 1.0000
vn 0.0020 0.0119 0.9999
vn 0.0014 -0.0061 1.0000
vn -0.5625 0.8268 -0.0000
vn 1.0000 0.0063 -0.0000
vn -0.0164 0.9999 -0.0000
vn 0.9997 0.0248 -0.0000
vn 0.0020 0.0119 -0.9999
vn -0.9998 -0.0217 -0.0000
vn 0.9957 0.0905 0.0172
vn 0.7810 -0.6245 -0.0000
vn -0.9847 0.1741 -0.0000
vn -0.6963 0.1741 -0.6963
vn 0.6963 0.1741 -0.6963
vn 0.9847 0.1740 -0.0000
vn 0.6963 0.1741 0.6963
vn -0.0000 0.1741 0.9847
vn -0.6963 0.1741 0.6963
vn -0.0000 0.1741 -0.9847
vn -0.3778 -0.0625 0.9238
vn -0.9111 -0.1539 0.3825
vn -0.9111 -0.1539 -0.3825
vn -0.3778 -0.0625 -0.9238
vn 0.3769 0.0670 -0.9238
vn 0.9103 0.1584 -0.3825
vn 0.9103 0.1584 0.3825
vn 0.3769 0.0670 0.9238
vn -0.2410 0.9696 0.0424
vn -0.2411 0.9696 0.0423
vn -0.2577 0.9662 -0.0000
vn -0.1995 0.9780 -0.0613
vn -0.1996 0.9780 -0.0613
vn -0.1561 0.9867 -0.0444
vn -0.1561 0.9868 -0.0444
vn -0.1560 0.9868 0.0444
vn -0.1561 0.9867 0.0444
vn -0.1996 0.9780 0.0613
vn -0.1995 0.9780 0.0613
vn -0.2411 0.9696 -0.0423
vn -0.2411 0.9696 -0.0424
vn -0.1375 0.9905 -0.0000
vn -0.9037 -0.1934 -0.3819
vn -0.9181 -0.1016 -0.3831
vn -0.9181 -0.1015 -0.3832
vn -0.3737 -0.0879 0.9234
vn -0.3796 -0.0458 0.9240
vn 0.3779 0.0620 0.9238
vn 0.3807 0.0327 0.9241
vn 0.3807 0.0324 0.9241
vn 0.9086 0.1681 -0.3823
vn 0.9195 0.0878 -0.3833
vn 0.9194 0.0881 -0.3832
vn -0.3737 -0.0879 -0.9234
vn -0.3796 -0.0458 -0.9240
vn -0.9037 -0.1934 0.3819
vn -0.9181 -0.1015 0.3832
vn -0.9181 -0.1016 0.3831
vn 0.9086 0.1681 0.3823
vn 0.9194 0.0880 0.3832
vn 0.9195 0.0878 0.3833
vn 0.3779 0.0620 -0.9238
vn 0.3807 0.0325 -0.9241
vn 0.3807 0.0329 -0.9241
vn 0.7639 0.6454 -0.0000
vn 0.5349 0.6410 0.5504
vn -0.0170 0.6299 -0.7765
vn 0.5349 0.6410 -0.5504
vn -0.7903 0.6127 -0.0000
vn -0.5651 0.6179 -0.5467
vn -0.0170 0.6299 0.7765
vn -0.5651 0.6179 0.5467
vn 0.3722 0.0895 -0.9238
vn 0.9029 0.1956 0.3827
vn -0.9089 -0.1660 0.3825
vn -0.3784 -0.0603 -0.9237
vn 0.9029 0.1956 -0.3827
vn 0.3722 0.0895 0.9238
vn -0.3784 -0.0603 0.9237
vn -0.9089 -0.1660 -0.3825
vn 0.1792 -0.9522 0.2473
vn 0.1793 -0.9522 0.2474
vn 0.0046 -0.9841 0.1775
vn 0.0045 -0.9841 0.1774
vn -0.2553 0.9620 0.0973
vn -0.2555 0.9619 0.0971
vn -0.1598 0.9784 0.1308
vn -0.1594 0.9785 0.1308
vn 0.4176 -0.9086 -0.0000
vn 0.3488 -0.9212 0.1723
vn 0.3488 -0.9212 0.1724
vn -0.0732 0.9934 0.0879
vn -0.0730 0.9935 0.0876
vn 0.1793 -0.9522 -0.2473
vn 0.1793 -0.9522 -0.2474
vn 0.3489 -0.9212 -0.1723
vn -0.0401 0.9992 -0.0000
vn -0.0732 0.9934 -0.0879
vn -0.0730 0.9935 -0.0876
vn 0.0045 -0.9841 -0.1773
vn 0.0046 -0.9841 -0.1775
vn -0.1594 0.9785 -0.1308
vn -0.1598 0.9784 -0.1308
vn -0.2555 0.9619 -0.0971
vn -0.2553 0.9620 -0.0973
vn 0.3764 0.0718 -0.9237
vn 0.9069 0.1773 0.3823
vn -0.9057 -0.1826 0.3825
vn -0.3749 -0.0773 -0.9238
vn 0.9069 0.1773 -0.3823
vn 0.3764 0.0718 0.9237
vn -0.3749 -0.0773 0.9238
vn -0.9057 -0.1826 -0.3825
vn -0.2978 0.9546 -0.0000
vn -0.0692 -0.9976 -0.0000
vn 0.2000 -0.9798 -0.0000
vt 0.100168 0.108091
vt 0.139706 0.108091
vt 0.143538 0.158473
vt 0.100168 0.158473
vt 0.134238 0.121742
vt 0.041445 0.121742
vt 0.046397 0.168291
vt 0.046397 0.110242
vt 0.199319 0.110242
vt 0.199319 0.168291
vt 0.053353 0.194370
vt 0.178809 0.194370
vt 0.178809 0.241993
vt 0.053353 0.241993
vt 0.049786 0.183664
vt 0.100168 0.183664
vt 0.100168 0.208855
vt 0.049786 0.208855
vt 0.143846 0.208855
vt 0.140182 0.259237
vt 0.100168 0.259237
vt 0.155108 0.187744
vt 0.155108 0.136390
vt 0.375000 0.625000
vt 0.375000 0.500000
vt 0.174380 0.228537
vt 0.174380 0.186261
vt 0.110691 0.156887
vt 0.110691 0.111646
vt 0.375000 0.625676
vt 0.375000 0.530776
vt 0.041445 0.121742
vt 0.041445 0.229537
vt 0.041445 0.175640
vt 0.041445 0.175836
vt 0.041445 0.229537
vt 0.106072 0.437089
vt 0.106072 0.433531
vt 0.370223 0.654336
vt 0.370223 0.587146
vt 0.041445 0.229537
vt 0.150550 0.108091
vt 0.150550 0.158473
vt 0.047867 0.142776
vt 0.047867 0.154819
vt 0.145691 0.154819
vt 0.132077 0.142776
vt 0.134897 0.229537
vt 0.150550 0.208855
vt 0.150550 0.259237
vt 0.047867 0.240600
vt 0.047867 0.229087
vt 0.047867 0.240600
vt 0.047867 0.240600
vt 0.132675 0.240600
vt 0.145691 0.229087
vt 0.059447 0.065695
vt 0.163208 0.065695
vt 0.163537 0.130737
vt 0.059447 0.131018
vt 0.370223 0.721525
vt 0.375000 0.720575
vt 0.376592 0.744575
vt 0.376592 0.602310
vt 0.383905 0.714921
vt 0.393458 0.654255
vt 0.383905 0.593751
vt 0.392859 0.638510
vt 0.392859 0.714887
vt 0.347104 0.585937
vt 0.425123 0.624151
vt 0.000000 0.000000
vt 0.389026 0.720523
vt 0.447718 0.677809
vt 0.312075 0.624151
vt 0.384553 0.591281
vt 0.389026 0.600887
vt 0.143504 0.399111
vt 0.143504 0.456452
vt 0.136337 0.456452
vt 0.136337 0.399111
vt 0.129169 0.456452
vt 0.129169 0.399111
vt 0.122002 0.456452
vt 0.122002 0.399111
vt 0.114834 0.456452
vt 0.114834 0.399111
vt 0.107666 0.456452
vt 0.107666 0.399111
vt 0.100499 0.456452
vt 0.100499 0.399111
vt 0.093331 0.456452
vt 0.093331 0.399111
vt 0.086163 0.456452
vt 0.086163 0.399111
vt 0.106072 0.440647
vt 0.046397 0.226340
vt 0.053353 0.146747
vt 0.178809 0.146747
vt 0.199319 0.226340
vt 0.110691 0.202128
vt 0.174380 0.270813
vt 0.155108 0.239097
vt 0.375000 0.750000
vt 0.049786 0.158473
vt 0.161973 0.196341
vt 0.059447 0.196341
vt 0.082695 0.166589
vt 0.082065 0.042128
vt 0.133512 0.071552
vt 0.133512 0.166452
vt 0.079701 0.292128
vt 0.133512 0.261351
vt 0.047867 0.191953
vt 0.047867 0.191866
vt 0.385501 0.625206
vt 0.379777 0.619418
vt 0.379777 0.705176
vt 0.375000 0.602810
vt 0.372472 0.624294
vt 0.321812 0.625206
vt 0.191583 0.555667
vt 0.191583 0.757865
vt 0.173275 0.757865
vt 0.173275 0.555667
vt 0.154966 0.757865
vt 0.154966 0.555667
vt 0.136657 0.757865
vt 0.136657 0.555667
vt 0.118348 0.757865
vt 0.118348 0.555667
vt 0.100040 0.757865
vt 0.100040 0.555667
vt 0.081731 0.757865
vt 0.081731 0.555667
vt 0.063422 0.757865
vt 0.063422 0.555667
vt 0.045113 0.757865
vt 0.045113 0.555667
vt 0.875000 0.000000
vt 0.750000 0.000000
vt 0.500000 0.000000
vt 0.375000 0.000000
vt 0.125000 0.000000
vt 1.000000 0.000000
vt 0.625000 0.000000
vt 0.250000 0.000000
vt 0.750000 0.000000
vt 0.250000 0.000000
vt 0.372519 0.000000
vt 0.497498 0.000000
vt 1.000366 0.000000
vt 0.872178 0.000000
vt 0.622467 0.000000
vt 0.750000 0.000000
vt 0.122087 0.000000
vt -0.004644 0.000000
vt 0.877532 0.000000
vt 1.003832 0.000000
vt 0.377913 0.000000
vt 0.127481 0.000000
vt 0.627822 0.000000
vt 0.502824 0.000000
vt 0.083404 0.371657
vt 0.113641 0.371657
vt 0.103562 0.371657
vt 0.093483 0.371657
vt 0.073324 0.371657
vt 0.123721 0.371657
vt 0.063245 0.371657
vt 0.053166 0.371657
s 1
g Cube.031_RS
usemtl RS
f 2/1/1 32/2/2 34/3/3 4/4/1
f 34/5/3 59/6/4 6/6/1 4/6/1
f 165/7/5 60/8/5 33/9/6 164/10/6
f 164/11/6 163/12/7 62/13/7 64/14/6
f 178/15/8 179/16/8 3/17/8 1/18/8
f 3/17/9 63/19/10 61/20/11 1/21/9
f 179/22/12 4/23/12 6/23/12 180/22/12
f 180/22/13 6/23/13 8/23/13 181/22/13
f 181/22/14 8/23/14 10/23/14 182/22/14
f 182/22/15 10/23/15 12/23/15 183/22/15
f 183/22/16 12/23/16 14/23/16 184/22/16
f 184/22/17 14/23/17 16/23/17 185/22/17
f 185/22/18 16/23/18 18/23/18 186/22/18
f 186/22/19 18/23/19 20/23/19 187/22/19
f 187/24/20 20/25/20 22/25/20 188/24/20
f 188/22/21 22/23/21 24/23/21 189/22/21
f 189/22/22 24/23/22 26/23/22 190/22/22
f 190/26/23 26/27/23 28/27/23 191/26/23
f 191/28/24 28/29/24 30/29/24 192/28/24
f 28/6/1 37/6/25 35/6/26 30/6/1
f 167/30/27 38/31/27 40/31/27 168/30/27
f 26/6/1 39/6/1 37/6/25 28/6/1
f 24/6/1 41/6/1 39/6/1 26/6/1
f 22/6/1 43/6/1 41/6/1 24/6/1
f 20/6/1 45/6/28 43/6/1 22/6/1
f 18/6/1 47/6/29 45/6/28 20/6/1
f 16/6/1 49/32/30 47/6/29 18/6/1
f 14/6/1 51/6/31 49/6/30 16/6/1
f 12/6/1 53/6/32 51/6/31 14/6/1
f 10/6/1 55/6/33 53/6/32 12/6/1
f 8/6/1 57/6/34 55/6/33 10/6/1
f 6/6/1 59/6/4 57/6/34 8/6/1
f 29/33/35 192/34/35 194/35/35 66/36/35
f 177/7/36 58/8/36 60/8/5 165/7/5
f 176/37/37 56/38/37 58/38/37 177/37/37
f 175/37/38 54/38/38 56/38/38 176/37/38
f 174/30/39 52/31/40 54/31/41 175/30/39
f 173/30/42 50/31/42 52/31/42 174/30/42
f 172/30/43 48/31/43 50/31/43 173/30/43
f 171/30/44 46/31/44 48/31/44 172/30/44
f 170/39/45 44/40/45 46/40/45 171/39/45
f 169/39/7 42/40/7 44/40/7 170/39/7
f 168/39/46 40/40/46 42/40/46 169/39/46
f 166/39/47 36/40/47 38/40/47 167/39/47
f 29/33/9 66/33/48 68/33/49 27/33/9
f 7/33/9 88/33/50 90/33/51 5/33/9
f 9/33/9 86/33/52 88/41/50 7/33/9
f 11/33/9 84/33/53 86/33/52 9/33/9
f 13/33/9 82/33/54 84/33/53 11/33/9
f 15/33/9 80/36/55 82/33/54 13/33/9
f 17/33/9 78/33/56 80/36/55 15/33/9
f 19/33/9 76/33/57 78/41/56 17/33/9
f 21/33/9 74/33/9 76/33/57 19/33/9
f 23/33/9 72/33/9 74/33/9 21/33/9
f 25/33/9 70/33/9 72/33/9 23/33/9
f 27/33/9 68/33/49 70/33/9 25/33/9
f 31/42/58 33/43/59 34/3/60 32/2/61
f 35/44/26 37/44/25 38/45/62 36/45/63
f 37/44/25 39/44/64 40/45/65 38/45/62
f 39/44/64 41/44/66 42/45/67 40/45/65
f 41/44/66 43/44/68 44/45/69 42/45/67
f 43/44/68 45/44/70 46/45/71 44/45/69
f 45/44/70 47/44/72 48/45/73 46/45/71
f 47/44/72 49/44/74 50/45/75 48/45/73
f 49/44/74 51/44/76 52/45/40 50/45/75
f 51/44/76 53/44/77 54/45/41 52/45/40
f 53/44/77 55/44/78 56/45/79 54/45/41
f 55/44/78 57/44/80 58/45/81 56/45/79
f 57/44/80 59/44/82 60/45/83 58/45/81
f 33/46/59 60/45/83 59/44/82 34/47/60
f 63/48/10 3/33/9 5/33/9 90/33/51
f 64/49/84 62/50/85 61/20/86 63/19/87
f 68/51/49 66/51/48 65/52/88 67/52/89
f 70/51/90 68/51/49 67/52/89 69/52/91
f 72/51/92 70/51/90 69/52/91 71/52/93
f 74/51/94 72/51/92 71/52/93 73/52/95
f 76/51/96 74/51/94 73/52/95 75/52/97
f 78/53/98 76/51/96 75/52/97 77/52/99
f 80/54/100 78/51/98 77/52/99 79/52/101
f 82/51/102 80/54/100 79/52/101 81/52/103
f 84/51/104 82/51/102 81/52/103 83/52/105
f 86/51/106 84/51/104 83/52/105 85/52/107
f 88/53/108 86/51/106 85/52/107 87/52/109
f 90/51/110 88/51/108 87/52/109 89/52/111
f 63/55/87 90/51/110 89/52/111 64/56/84
f 1/57/112 61/58/112 193/59/113 178/60/113
f 93/61/114 91/40/114 92/40/114 94/61/114
f 91/40/115 93/61/115 96/61/115 95/40/115
f 95/40/116 96/61/116 98/61/117 97/40/117
f 97/31/117 98/62/117 100/62/118 99/31/118
f 99/40/119 100/61/119 102/61/119 101/40/119
f 94/63/120 92/64/120 101/64/120 102/63/120
f 94/61/9 102/61/9 100/61/9 93/61/9
f 93/61/9 100/61/9 98/61/9 96/61/9
f 91/40/1 99/40/1 101/40/1 92/40/1
f 95/40/1 97/40/1 99/40/1 91/40/1
f 105/65/121 103/66/121 104/66/122 106/65/122
f 106/65/123 104/67/123 107/67/123 108/65/123
f 103/67/121 105/65/121 130/65/124 129/67/124
f 109/66/125 110/65/125 112/65/125 111/66/125
f 146/67/126 145/65/126 114/65/126 113/67/126
f 113/68/127 114/69/127 116/69/127 115/68/127
f 115/67/128 116/65/128 118/65/128 117/67/128
f 117/67/129 118/65/129 120/65/129 119/67/129
f 119/68/130 120/69/130 122/69/130 121/68/130
f 121/67/131 122/65/131 124/65/131 123/67/131
f 123/67/132 124/65/132 126/65/132 125/67/132
f 125/67/133 126/65/133 128/65/133 127/67/133
f 108/65/134 107/67/134 127/67/134 128/65/134
f 129/67/135 130/65/135 132/65/135 131/67/135
f 109/70/136 103/70/136 129/70/137 131/70/137
f 110/65/138 109/67/138 131/67/138 132/65/138
f 105/71/139 110/71/139 132/71/140 130/71/140
f 134/72/141 133/72/141 135/72/141 136/72/141
f 136/72/142 135/72/142 137/72/142 138/72/142
f 138/72/143 137/72/143 139/72/143 140/72/143
f 140/72/144 139/72/144 141/72/144 142/72/144
f 142/72/145 141/72/145 143/72/145 144/72/145
f 133/72/146 134/72/146 144/72/146 143/72/146
f 118/73/9 124/73/9 122/73/9 120/73/9
f 116/73/9 126/73/9 124/73/9 118/73/9
f 116/73/9 114/73/9 143/74/9 126/73/9
f 111/67/147 112/65/147 145/65/126 146/67/126
f 114/73/9 145/73/148 133/74/148 143/74/9
f 133/74/148 145/73/148 112/73/149 135/74/150
f 135/74/150 112/73/149 106/74/151 137/74/152
f 106/75/151 112/62/149 110/62/139 105/75/139
f 108/73/153 139/74/153 137/74/152 106/74/151
f 128/73/9 141/74/9 139/74/153 108/73/153
f 126/73/9 143/74/9 141/74/9 128/73/9
f 103/75/136 109/75/136 111/76/154 104/76/155
f 136/74/156 138/74/157 104/77/155 111/77/154
f 146/77/158 134/74/158 136/74/156 111/77/154
f 134/74/158 146/77/158 113/77/1 144/74/1
f 113/77/1 115/77/1 125/74/1 144/74/1
f 119/77/1 121/77/1 123/77/1 117/77/1
f 117/77/1 123/77/1 125/77/1 115/77/1
f 127/77/1 142/74/1 144/74/1 125/74/1
f 107/77/159 140/74/159 142/74/1 127/77/1
f 104/77/155 138/74/157 140/74/159 107/77/159
f 147/78/160 148/79/160 150/80/160 149/81/160
f 149/81/161 150/80/161 152/82/161 151/83/161
f 151/83/162 152/82/162 154/84/162 153/85/162
f 153/85/163 154/84/163 156/86/163 155/87/163
f 155/87/164 156/86/164 158/88/164 157/89/164
f 157/89/165 158/88/165 160/90/165 159/91/165
f 159/91/166 160/90/166 162/92/166 161/93/166
f 161/93/167 162/92/167 148/94/167 147/95/167
f 65/61/47 166/39/47 167/39/47 67/61/47
f 69/61/46 168/39/46 169/39/46 71/61/46
f 71/61/7 169/39/7 170/39/7 73/61/7
f 73/61/45 170/39/45 171/39/45 75/61/45
f 75/62/44 171/30/44 172/30/44 77/62/44
f 77/62/43 172/30/43 173/30/43 79/62/43
f 79/62/42 173/30/42 174/30/42 81/62/42
f 81/62/103 174/30/39 175/30/39 83/62/105
f 83/96/38 175/37/38 176/37/38 85/96/38
f 85/96/37 176/37/37 177/37/37 87/96/37
f 87/97/36 177/7/36 165/7/5 89/97/5
f 67/61/27 167/39/27 168/39/27 69/61/27
f 33/98/6 31/99/7 163/12/7 164/11/6
f 89/97/5 165/7/5 164/10/6 64/100/6
f 27/101/24 191/28/24 192/28/24 29/101/24
f 25/102/23 190/26/23 191/26/23 27/102/23
f 23/103/22 189/22/22 190/22/22 25/103/22
f 21/103/21 188/22/21 189/22/21 23/103/21
f 19/104/20 187/24/20 188/24/20 21/104/20
f 17/103/19 186/22/19 187/22/19 19/103/19
f 15/103/18 185/22/18 186/22/18 17/103/18
f 13/103/17 184/22/17 185/22/17 15/103/17
f 11/103/16 183/22/16 184/22/16 13/103/16
f 9/103/15 182/22/15 183/22/15 11/103/15
f 7/103/14 181/22/14 182/22/14 9/103/14
f 5/103/13 180/22/13 181/22/13 7/103/13
f 3/103/12 179/22/12 180/22/12 5/103/12
f 2/105/8 4/4/8 179/16/8 178/15/8
f 178/60/113 193/59/113 32/106/168 2/107/168
f 193/108/169 61/109/170 62/110/170 163/111/171
f 32/112/172 193/108/169 163/111/171 31/113/172
f 166/114/35 194/115/35 35/44/35 36/45/35
f 66/54/35 194/115/35 166/114/35 65/52/35
f 35/6/35 194/35/35 192/34/35 30/6/35
f 150/80/173 148/79/174 195/79/175 196/80/176
f 156/86/177 154/84/178 198/84/179 199/86/180
f 162/92/181 160/90/182 201/90/183 202/92/184
f 152/82/185 150/80/173 196/80/176 197/82/186
f 158/88/187 156/86/177 199/86/180 200/88/188
f 148/94/174 162/92/181 202/92/184 195/94/175
f 154/84/178 152/82/185 197/82/186 198/84/179
f 160/90/182 158/88/187 200/88/188 201/90/183
f 198/84/179 197/82/186 205/82/189 206/84/190
f 196/80/176 195/79/175 203/79/191 204/80/192
f 195/94/175 202/92/184 210/92/193 203/94/191
f 201/90/183 200/88/188 208/88/194 209/90/195
f 199/86/180 198/84/179 206/84/190 207/86/196
f 197/82/186 196/80/176 204/80/192 205/82/189
f 202/92/184 201/90/183 209/90/195 210/92/193
f 200/88/188 199/86/180 207/86/196 208/88/194
f 210/92/193 209/90/195 217/90/197 218/92/198
f 208/88/194 207/86/196 215/86/199 216/88/200
f 206/84/190 205/82/189 213/82/201 214/84/202
f 204/80/192 203/79/191 211/79/203 212/80/204
f 203/94/191 210/92/193 218/92/198 211/94/203
f 209/90/195 208/88/194 216/88/200 217/90/197
f 207/86/196 206/84/190 214/84/202 215/86/199
f 205/82/189 204/80/192 212/80/204 213/82/201
f 215/86/199 214/84/202 222/84/205 223/86/206
f 213/82/201 212/80/204 220/80/207 221/82/208
f 218/92/198 217/90/197 225/90/209 226/92/210
f 216/88/200 215/86/199 223/86/206 224/88/211
f 214/84/202 213/82/201 221/82/208 222/84/205
f 212/80/204 211/79/203 219/79/212 220/80/207
f 211/94/203 218/92/198 226/92/210 219/94/212
f 217/90/197 216/88/200 224/88/211 225/90/209
f 221/82/213 229/95/213 230/95/213 222/84/213
f 222/84/213 230/95/213 231/95/213 223/86/213
f 223/86/213 231/95/213 232/95/213 224/88/213
f 224/88/213 232/95/213 233/95/213 225/90/213
f 225/90/213 233/95/213 234/95/213 226/92/213
f 226/92/213 234/95/213 227/95/213 219/94/213
f 219/94/213 227/95/213 228/95/213 220/80/213
f 220/80/213 228/95/213 229/95/213 221/82/213
f 232/95/160 231/95/160 239/95/160 240/95/160
f 230/95/166 229/95/166 237/95/166 238/95/166
f 228/95/164 227/95/164 235/95/164 236/95/164
f 227/95/163 234/95/163 242/95/163 235/95/163
f 233/95/161 232/95/161 240/95/161 241/95/161
f 231/95/167 230/95/167 238/95/167 239/95/167
f 229/95/165 228/95/165 236/95/165 237/95/165
f 234/95/162 233/95/162 241/95/162 242/95/162
f 237/116/213 236/116/213 239/116/213 238/116/213
f 236/116/213 235/116/213 240/116/213 239/116/213
f 241/116/213 240/116/213 235/116/213 242/116/213
f 149/81/214 151/83/215 245/83/215 244/81/214
f 155/87/216 157/89/217 248/89/217 247/87/216
f 161/93/218 147/95/219 243/95/219 250/93/218
f 147/78/219 149/81/214 244/81/214 243/78/219
f 151/83/215 153/85/220 246/85/220 245/83/215
f 157/89/217 159/91/221 249/91/221 248/89/217
f 153/85/220 155/87/216 247/87/216 246/85/220
f 159/91/221 161/93/218 250/93/218 249/91/221
f 246/85/222 247/87/9 255/87/223 254/85/224
f 244/81/225 245/83/7 253/83/226 252/81/227
f 249/91/17 250/93/228 258/93/229 257/91/230
f 247/87/9 248/89/231 256/89/232 255/87/223
f 245/83/7 246/85/222 254/85/224 253/83/226
f 243/78/1 244/81/225 252/81/227 251/78/233
f 250/93/228 243/95/1 251/95/233 258/93/229
f 248/89/231 249/91/17 257/91/230 256/89/232
f 259/31/234 261/31/234 262/62/234 260/62/234
f 263/117/235 264/118/235 268/118/235 267/117/235
f 260/62/9 262/62/9 266/62/9 264/62/9
f 259/119/236 260/62/236 264/62/236 263/119/236
f 261/119/1 259/119/1 263/119/1 265/119/1
f 262/62/237 261/119/237 265/119/238 266/62/238
f 269/120/1 267/120/1 274/120/1 276/120/1
f 265/120/1 263/120/1 267/120/1 269/120/1
f 266/62/238 265/31/238 269/31/239 270/62/239
f 264/62/9 266/62/9 270/62/9 268/62/9
f 275/62/9 277/62/9 284/62/9 282/62/9
f 270/62/239 269/31/239 276/31/240 277/62/240
f 268/62/9 270/62/9 277/62/9 275/62/9
f 267/117/241 268/118/241 275/118/241 274/117/241
f 312/95/242 306/95/243 305/95/244 311/95/245
f 308/95/246 303/95/247 304/95/248 307/95/249
f 282/62/9 284/62/9 288/62/9 286/62/9
f 274/117/250 275/118/250 282/118/250 281/117/250
f 310/95/251 299/95/252 300/95/253 309/95/254
f 276/120/1 274/120/1 281/120/1 283/120/1
f 277/62/240 276/31/240 283/31/255 284/62/255
f 309/95/254 300/95/253 301/95/256 313/95/257
f 286/62/9 288/62/9 292/62/9 290/62/9
f 281/117/17 282/118/17 286/118/17 285/117/17
f 283/120/1 281/120/1 285/120/1 287/120/1
f 284/62/255 283/31/255 287/31/258 288/62/258
f 291/120/1 289/120/1 293/120/1 295/120/1
f 285/117/259 286/118/259 290/118/259 289/117/259
f 287/120/1 285/120/1 289/120/1 291/120/1
f 288/62/258 287/31/258 291/31/260 292/62/260
f 293/31/261 294/62/261 296/62/261 295/31/261
f 292/62/260 291/31/260 295/31/262 296/62/262
f 290/62/9 292/62/9 296/62/9 294/62/9
f 289/117/263 290/118/263 294/118/263 293/117/263
f 307/95/249 304/95/248 306/95/243 312/95/242
f 314/95/264 302/95/265 303/95/247 308/95/246
f 313/95/257 301/95/256 302/95/265 314/95/264
f 311/95/245 305/95/244 299/95/252 310/95/251
f 273/121/213 278/121/213 271/121/213 272/121/213
f 297/121/213 271/121/213 278/121/213 279/121/213
f 298/121/213 297/121/213 279/121/213 280/121/213
f 297/95/266 311/95/245 310/95/251 271/95/267
f 273/95/268 313/95/257 314/95/264 278/95/269
f 278/95/269 314/95/264 308/95/246 279/95/270
f 280/95/271 307/95/249 312/95/242 298/95/272
f 272/95/273 309/95/254 313/95/257 273/95/268
f 271/95/267 310/95/251 309/95/254 272/95/273
f 279/95/270 308/95/246 307/95/249 280/95/271
f 298/95/272 312/95/242 311/95/245 297/95/266
f 315/122/274 316/123/274 318/124/274 317/125/274
f 317/125/275 318/124/275 320/126/275 319/127/275
f 319/127/276 320/126/276 322/128/276 321/129/276
f 321/129/277 322/128/277 324/130/277 323/131/277
f 323/131/278 324/130/278 326/132/278 325/133/278
f 325/133/279 326/132/279 328/134/279 327/135/279
f 327/135/280 328/134/280 330/136/280 329/137/280
f 329/137/281 330/136/281 316/138/281 315/139/281
f 317/140/282 319/141/282 333/141/282 332/140/282
f 323/142/282 325/143/282 336/143/282 335/142/282
f 329/144/282 315/72/282 331/72/282 338/144/282
f 315/145/282 317/140/282 332/140/282 331/145/282
f 319/141/282 321/146/282 334/146/282 333/141/282
f 325/143/282 327/147/282 337/147/282 336/143/282
f 321/146/282 323/142/282 335/142/282 334/146/282
f 327/147/282 329/144/282 338/144/282 337/147/282
f 367/148/283 363/146/283 342/146/284 341/141/285
f 368/145/286 364/140/286 340/140/287 339/145/287
f 369/144/288 368/72/288 339/72/289 346/144/290
f 370/143/291 365/147/291 345/147/292 344/143/292
f 363/146/293 366/142/293 343/142/294 342/146/294
f 364/140/295 367/148/295 341/141/296 340/140/297
f 365/147/298 369/144/298 346/144/299 345/147/299
f 366/142/300 370/143/300 344/143/301 343/142/301
f 345/147/299 346/144/299 354/144/302 353/147/303
f 343/142/301 344/143/301 352/143/304 351/142/305
f 341/141/285 342/146/284 350/146/306 349/141/307
f 339/145/287 340/140/287 348/140/308 347/145/309
f 346/144/290 339/72/289 347/72/309 354/144/302
f 344/143/292 345/147/292 353/147/303 352/143/304
f 342/146/294 343/142/294 351/142/305 350/146/306
f 340/140/297 341/141/296 349/141/307 348/140/308
f 335/142/310 336/143/310 361/143/310 362/142/310
f 337/147/311 338/144/311 359/144/311 360/149/311
f 332/140/312 333/141/312 356/148/312 357/140/312
f 334/146/313 335/142/313 362/142/313 355/146/313
f 336/143/314 337/147/314 360/149/314 361/143/314
f 338/144/315 331/72/315 358/72/315 359/144/315
f 331/145/316 332/140/316 357/140/316 358/145/316
f 333/141/317 334/146/317 355/146/317 356/148/317
f 362/142/318 361/143/319 377/150/320 378/151/321
f 364/140/322 368/145/323 384/152/323 380/153/324
f 356/148/325 355/146/326 371/154/326 372/155/325
f 368/72/323 369/144/327 385/156/328 384/157/323
f 358/145/329 357/140/330 373/158/331 374/159/332
f 365/147/333 370/143/334 386/160/335 381/149/333
f 359/144/336 358/72/329 374/72/332 375/161/337
f 366/142/338 363/146/339 379/162/340 382/163/338
f 378/151/341 377/150/341 386/160/341 382/163/341
f 376/149/342 375/161/342 385/156/342 381/149/342
f 373/158/343 372/155/343 383/155/343 380/153/343
f 371/154/344 378/151/344 382/163/344 379/162/344
f 377/150/345 376/149/345 381/149/345 386/160/345
f 375/161/346 374/72/346 384/157/346 385/156/346
f 374/159/347 373/158/347 380/153/347 384/152/347
f 372/155/348 371/154/348 379/162/348 383/155/348
f 363/146/339 367/148/349 383/155/349 379/162/340
f 360/149/350 359/144/336 375/161/337 376/149/350
f 370/143/334 366/142/338 382/163/338 386/160/335
f 357/140/330 356/148/325 372/155/325 373/158/331
f 369/144/327 365/147/333 381/149/333 385/156/328
f 355/146/326 362/142/318 378/151/321 371/154/326
f 367/148/349 364/140/322 380/153/324 383/155/349
f 361/143/319 360/149/350 376/149/350 377/150/320
f 324/164/351 330/165/351 328/166/351 326/167/351
f 322/168/351 316/169/351 330/165/351 324/164/351
f 316/169/351 322/168/351 320/170/351 318/171/351
g Cube.031_outline
usemtl outline
f 388/1/352 390/4/353 420/3/354 418/2/355
f 420/5/354 390/6/353 392/6/356 445/6/357
f 551/7/358 550/10/359 419/9/360 446/8/361
f 550/11/359 450/14/362 448/13/363 549/12/364
f 564/15/365 387/18/366 389/17/366 565/16/365
f 389/17/367 387/21/368 447/20/369 449/19/370
f 565/22/371 566/22/371 392/23/372 390/23/372
f 566/22/373 567/22/373 394/23/374 392/23/374
f 567/22/375 568/22/375 396/23/376 394/23/376
f 568/22/377 569/22/377 398/23/378 396/23/378
f 569/22/379 570/22/379 400/23/380 398/23/380
f 570/22/381 571/22/381 402/23/382 400/23/382
f 571/22/383 572/22/383 404/23/384 402/23/384
f 572/22/385 573/22/385 406/23/386 404/23/386
f 573/24/387 574/24/387 408/25/388 406/25/388
f 574/22/389 575/22/389 410/23/390 408/23/390
f 575/22/391 576/22/391 412/23/392 410/23/392
f 576/26/393 577/26/393 414/27/394 412/27/394
f 577/28/395 578/28/395 416/29/396 414/29/396
f 414/6/397 416/6/398 421/6/399 423/6/400
f 553/30/401 554/30/401 426/31/402 424/31/402
f 412/6/403 414/6/397 423/6/400 425/6/404
f 410/6/405 412/6/403 425/6/404 427/6/406
f 408/6/407 410/6/405 427/6/406 429/6/408
f 406/6/409 408/6/407 429/6/408 431/6/410
f 404/6/411 406/6/409 431/6/410 433/6/412
f 402/6/413 404/6/411 433/6/412 435/32/414
f 400/6/415 402/6/413 435/6/414 437/6/416
f 398/6/417 400/6/415 437/6/416 439/6/418
f 396/6/419 398/6/417 439/6/418 441/6/420
f 394/6/421 396/6/419 441/6/420 443/6/422
f 392/6/356 394/6/421 443/6/422 445/6/357
f 415/33/423 452/36/424 580/35/425 578/34/426
f 563/7/427 551/7/358 446/8/361 444/8/428
f 562/37/429 563/37/429 444/38/430 442/38/430
f 561/37/431 562/37/431 442/38/432 440/38/432
f 560/30/433 561/30/433 440/31/434 438/31/435
f 559/30/436 560/30/436 438/31/437 436/31/437
f 558/30/438 559/30/438 436/31/439 434/31/439
f 557/30/440 558/30/440 434/31/441 432/31/441
f 556/39/442 557/39/442 432/40/443 430/40/443
f 555/39/444 556/39/444 430/40/445 428/40/445
f 554/39/446 555/39/446 428/40/447 426/40/447
f 552/39/448 553/39/448 424/40/449 422/40/449
f 415/33/450 413/33/451 454/33/452 452/33/453
f 393/33/454 391/33/455 476/33/456 474/33/457
f 395/33/458 393/33/454 474/41/457 472/33/459
f 397/33/460 395/33/458 472/33/459 470/33/461
f 399/33/462 397/33/460 470/33/461 468/33/463
f 401/33/464 399/33/462 468/33/463 466/36/465
f 403/33/466 401/33/464 466/36/465 464/33/467
f 405/33/468 403/33/466 464/41/467 462/33/469
f 407/33/470 405/33/468 462/33/469 460/33/471
f 409/33/472 407/33/470 460/33/471 458/33/473
f 411/33/474 409/33/472 458/33/473 456/33/475
f 413/33/451 411/33/474 456/33/475 454/33/452
f 417/42/476 418/2/477 420/3/478 419/43/479
f 421/44/399 422/45/480 424/45/481 423/44/400
f 423/44/400 424/45/481 426/45/482 425/44/483
f 425/44/483 426/45/482 428/45/484 427/44/485
f 427/44/485 428/45/484 430/45/486 429/44/487
f 429/44/487 430/45/486 432/45/488 431/44/489
f 431/44/489 432/45/488 434/45/490 433/44/491
f 433/44/491 434/45/490 436/45/492 435/44/493
f 435/44/493 436/45/492 438/45/435 437/44/494
f 437/44/494 438/45/435 440/45/434 439/44/495
f 439/44/495 440/45/434 442/45/496 441/44/497
f 441/44/497 442/45/496 444/45/498 443/44/499
f 443/44/499 444/45/498 446/45/500 445/44/501
f 419/46/479 420/47/478 445/44/501 446/45/500
f 449/48/370 476/33/456 391/33/455 389/33/367
f 450/49/502 449/19/503 447/20/504 448/50/505
f 454/51/452 453/52/506 451/52/507 452/51/453
f 456/51/508 455/52/509 453/52/506 454/51/452
f 458/51/510 457/52/511 455/52/509 456/51/508
f 460/51/512 459/52/513 457/52/511 458/51/510
f 462/51/514 461/52/515 459/52/513 460/51/512
f 464/53/516 463/52/517 461/52/515 462/51/514
f 466/54/518 465/52/519 463/52/517 464/51/516
f 468/51/520 467/52/521 465/52/519 466/54/518
f 470/51/522 469/52/523 467/52/521 468/51/520
f 472/51/524 471/52/525 469/52/523 470/51/522
f 474/53/526 473/52/527 471/52/525 472/51/524
f 476/51/528 475/52/529 473/52/527 474/51/526
f 449/55/503 450/56/502 475/52/529 476/51/528
f 387/57/530 564/60/531 579/59/532 447/58/530
f 479/61/533 480/61/533 478/40/533 477/40/533
f 477/40/534 481/40/534 482/61/534 479/61/534
f 481/40/535 483/40/536 484/61/537 482/61/535
f 483/31/536 485/31/538 486/62/538 484/62/537
f 485/40/539 487/40/539 488/61/539 486/61/539
f 480/63/540 488/63/540 487/64/540 478/64/540
f 480/61/541 479/61/542 486/61/543 488/61/541
f 479/61/542 482/61/544 484/61/544 486/61/543
f 477/40/545 478/40/546 487/40/546 485/40/547
f 481/40/548 477/40/545 485/40/547 483/40/548
f 491/65/549 492/65/550 490/66/550 489/66/551
f 492/65/552 494/65/552 493/67/552 490/67/552
f 489/67/551 515/67/553 516/65/553 491/65/549
f 495/66/554 497/66/554 498/65/554 496/65/554
f 532/67/555 499/67/556 500/65/556 531/65/555
f 499/68/557 501/68/557 502/69/557 500/69/557
f 501/67/558 503/67/558 504/65/558 502/65/558
f 503/67/559 505/67/559 506/65/559 504/65/559
f 505/68/560 507/68/560 508/69/560 506/69/560
f 507/67/561 509/67/561 510/65/561 508/65/561
f 509/67/562 511/67/562 512/65/562 510/65/562
f 511/67/563 513/67/563 514/65/563 512/65/563
f 494/65/564 514/65/564 513/67/564 493/67/564
f 515/67/565 517/67/565 518/65/565 516/65/565
f 495/70/566 517/70/567 515/70/567 489/70/568
f 496/65/569 518/65/569 517/67/569 495/67/569
f 491/71/570 516/71/571 518/71/571 496/71/572
f 520/72/573 522/72/573 521/72/573 519/72/573
f 522/72/574 524/72/574 523/72/574 521/72/574
f 524/72/575 526/72/575 525/72/575 523/72/575
f 526/72/576 528/72/576 527/72/576 525/72/576
f 528/72/577 530/72/577 529/72/577 527/72/577
f 519/72/578 529/72/578 530/72/578 520/72/578
f 504/73/579 506/73/580 508/73/580 510/73/581
f 502/73/582 504/73/579 510/73/581 512/73/583
f 502/73/582 512/73/583 529/74/584 500/73/585
f 497/67/586 532/67/555 531/65/555 498/65/586
f 500/73/585 529/74/584 519/74/587 531/73/588
f 519/74/587 521/74/589 498/73/590 531/73/588
f 521/74/589 523/74/591 492/74/592 498/73/590
f 492/75/592 491/75/570 496/62/572 498/62/590
f 494/73/593 492/74/592 523/74/591 525/74/594
f 514/73/595 494/73/593 525/74/594 527/74/596
f 512/73/583 514/73/595 527/74/596 529/74/584
f 489/75/568 490/76/597 497/76/598 495/75/566
f 522/74/599 497/77/598 490/77/597 524/74/600
f 532/77/601 497/77/598 522/74/599 520/74/602
f 520/74/602 530/74/603 499/77/604 532/77/601
f 499/77/604 530/74/603 511/74/605 501/77/606
f 505/77/607 503/77/608 509/77/609 507/77/607
f 503/77/608 501/77/606 511/77/605 509/77/609
f 513/77/610 511/74/605 530/74/603 528/74/611
f 493/77/612 513/77/610 528/74/611 526/74/613
f 490/77/597 493/77/612 526/74/613 524/74/600
f 533/78/614 535/81/614 536/80/614 534/79/614
f 535/81/615 537/83/615 538/82/615 536/80/615
f 537/83/616 539/85/616 540/84/616 538/82/616
f 539/85/617 541/87/617 542/86/617 540/84/617
f 541/87/618 543/89/618 544/88/618 542/86/618
f 543/89/619 545/91/619 546/90/619 544/88/619
f 545/91/620 547/93/620 548/92/620 546/90/620
f 547/93/621 533/95/621 534/94/621 548/92/621
f 451/61/622 453/61/622 553/39/448 552/39/448
f 455/61/623 457/61/623 555/39/446 554/39/446
f 457/61/624 459/61/624 556/39/444 555/39/444
f 459/61/625 461/61/625 557/39/442 556/39/442
f 461/62/626 463/62/626 558/30/440 557/30/440
f 463/62/627 465/62/627 559/30/438 558/30/438
f 465/62/628 467/62/628 560/30/436 559/30/436
f 467/62/521 469/62/523 561/30/433 560/30/433
f 469/96/629 471/96/629 562/37/431 561/37/431
f 471/96/630 473/96/630 563/37/429 562/37/429
f 473/97/631 475/97/632 551/7/358 563/7/427
f 453/61/633 455/61/633 554/39/401 553/39/401
f 419/98/360 550/11/359 549/12/364 417/99/634
f 475/97/632 450/100/362 550/10/359 551/7/358
f 413/101/635 415/101/635 578/28/395 577/28/395
f 411/102/636 413/102/636 577/26/393 576/26/393
f 409/103/637 411/103/637 576/22/391 575/22/391
f 407/103/638 409/103/638 575/22/389 574/22/389
f 405/104/639 407/104/639 574/24/387 573/24/387
f 403/103/640 405/103/640 573/22/385 572/22/385
f 401/103/641 403/103/641 572/22/383 571/22/383
f 399/103/642 401/103/642 571/22/381 570/22/381
f 397/103/643 399/103/643 570/22/379 569/22/379
f 395/103/644 397/103/644 569/22/377 568/22/377
f 393/103/645 395/103/645 568/22/375 567/22/375
f 391/103/646 393/103/646 567/22/373 566/22/373
f 389/103/647 391/103/647 566/22/371 565/22/371
f 388/105/648 564/15/365 565/16/365 390/4/648
f 564/60/531 388/107/649 418/106/649 579/59/532
f 579/108/650 549/111/651 448/110/652 447/109/652
f 418/112/653 417/113/653 549/111/651 579/108/650
f 552/114/654 422/45/655 421/44/656 580/115/425
f 452/54/424 451/52/657 552/114/654 580/115/425
f 421/6/656 416/6/658 578/34/426 580/35/425
f 536/80/659 582/80/660 581/79/661 534/79/662
f 542/86/663 585/86/664 584/84/665 540/84/666
f 548/92/667 588/92/668 587/90/669 546/90/670
f 538/82/671 583/82/672 582/80/660 536/80/659
f 544/88/673 586/88/674 585/86/664 542/86/663
f 534/94/662 581/94/661 588/92/668 548/92/667
f 540/84/666 584/84/665 583/82/672 538/82/671
f 546/90/670 587/90/669 586/88/674 544/88/673
f 584/84/665 592/84/675 591/82/676 583/82/672
f 582/80/660 590/80/677 589/79/678 581/79/661
f 581/94/661 589/94/678 596/92/679 588/92/668
f 587/90/669 595/90/680 594/88/681 586/88/674
f 585/86/664 593/86/682 592/84/675 584/84/665
f 583/82/672 591/82/676 590/80/677 582/80/660
f 588/92/668 596/92/679 595/90/680 587/90/669
f 586/88/674 594/88/681 593/86/682 585/86/664
f 596/92/679 604/92/683 603/90/684 595/90/680
f 594/88/681 602/88/685 601/86/686 593/86/682
f 592/84/675 600/84/687 599/82/688 591/82/676
f 590/80/677 598/80/689 597/79/690 589/79/678
f 589/94/678 597/94/690 604/92/683 596/92/679
f 595/90/680 603/90/684 602/88/685 594/88/681
f 593/86/682 601/86/686 600/84/687 592/84/675
f 591/82/676 599/82/688 598/80/689 590/80/677
f 601/86/686 609/86/691 608/84/692 600/84/687
f 599/82/688 607/82/693 606/80/694 598/80/689
f 604/92/683 612/92/695 611/90/696 603/90/684
f 602/88/685 610/88/697 609/86/691 601/86/686
f 600/84/687 608/84/692 607/82/693 599/82/688
f 598/80/689 606/80/694 605/79/698 597/79/690
f 597/94/690 605/94/698 612/92/695 604/92/683
f 603/90/684 611/90/696 610/88/697 602/88/685
f 607/82/699 608/84/700 616/95/700 615/95/699
f 608/84/700 609/86/701 617/95/701 616/95/700
f 609/86/701 610/88/702 618/95/702 617/95/701
f 610/88/702 611/90/703 619/95/703 618/95/702
f 611/90/703 612/92/704 620/95/704 619/95/703
f 612/92/704 605/94/705 613/95/705 620/95/704
f 605/94/705 606/80/706 614/95/706 613/95/705
f 606/80/706 607/82/699 615/95/699 614/95/706
f 618/95/707 626/95/707 625/95/707 617/95/707
f 616/95/708 624/95/708 623/95/708 615/95/708
f 614/95/709 622/95/709 621/95/709 613/95/709
f 613/95/710 621/95/710 628/95/710 620/95/710
f 619/95/711 627/95/711 626/95/711 618/95/711
f 617/95/712 625/95/712 624/95/712 616/95/712
f 615/95/713 623/95/713 622/95/713 614/95/713
f 620/95/714 628/95/714 627/95/714 619/95/714
f 623/116/715 624/116/715 625/116/715 622/116/715
f 622/116/715 625/116/715 626/116/715 621/116/715
f 627/116/715 628/116/715 621/116/715 626/116/715
f 535/81/716 630/81/716 631/83/717 537/83/717
f 541/87/718 633/87/718 634/89/719 543/89/719
f 547/93/720 636/93/720 629/95/721 533/95/721
f 533/78/721 629/78/721 630/81/716 535/81/716
f 537/83/717 631/83/717 632/85/722 539/85/722
f 543/89/719 634/89/719 635/91/723 545/91/723
f 539/85/722 632/85/722 633/87/718 541/87/718
f 545/91/723 635/91/723 636/93/720 547/93/720
f 632/85/724 640/85/725 641/87/726 633/87/727
f 630/81/728 638/81/729 639/83/730 631/83/731
f 635/91/134 643/91/732 644/93/733 636/93/734
f 633/87/727 641/87/726 642/89/735 634/89/736
f 631/83/731 639/83/730 640/85/725 632/85/724
f 629/78/737 637/78/738 638/81/729 630/81/728
f 636/93/734 644/93/733 637/95/738 629/95/737
f 634/89/736 642/89/735 643/91/732 635/91/134
f 645/31/739 646/62/739 648/62/739 647/31/739
f 649/117/740 653/117/740 654/118/740 650/118/740
f 646/62/741 650/62/742 652/62/743 648/62/741
f 645/119/744 649/119/744 650/62/744 646/62/744
f 647/119/745 651/119/746 649/119/747 645/119/745
f 648/62/748 652/62/749 651/119/749 647/119/748
f 655/120/750 662/120/751 660/120/752 653/120/753
f 651/120/746 655/120/750 653/120/753 649/120/747
f 652/62/749 656/62/754 655/31/754 651/31/749
f 650/62/742 654/62/755 656/62/756 652/62/743
f 661/62/757 668/62/758 670/62/759 663/62/760
f 656/62/754 663/62/761 662/31/761 655/31/754
f 654/62/755 661/62/757 663/62/760 656/62/756
f 653/117/762 660/117/762 661/118/762 654/118/762
f 698/95/763 697/95/764 691/95/765 692/95/766
f 694/95/767 693/95/768 690/95/769 689/95/770
f 668/62/758 672/62/771 674/62/772 670/62/759
f 660/117/773 667/117/773 668/118/773 661/118/773
f 696/95/774 695/95/775 686/95/776 685/95/777
f 662/120/751 669/120/778 667/120/779 660/120/752
f 663/62/761 670/62/780 669/31/781 662/31/761
f 695/95/775 699/95/782 687/95/783 686/95/776
f 672/62/771 676/62/784 678/62/785 674/62/772
f 667/117/786 671/117/786 672/118/786 668/118/786
f 669/120/778 673/120/787 671/120/788 667/120/779
f 670/62/780 674/62/789 673/31/790 669/31/781
f 677/120/791 681/120/792 679/120/792 675/120/793
f 671/117/794 675/117/794 676/118/794 672/118/794
f 673/120/787 677/120/791 675/120/793 671/120/788
f 674/62/789 678/62/795 677/31/795 673/31/790
f 679/31/796 681/31/796 682/62/796 680/62/796
f 678/62/795 682/62/797 681/31/797 677/31/795
f 676/62/784 680/62/798 682/62/798 678/62/785
f 675/117/799 679/117/799 680/118/799 676/118/799
f 693/95/768 698/95/763 692/95/766 690/95/769
f 700/95/800 694/95/767 689/95/770 688/95/801
f 699/95/782 700/95/800 688/95/801 687/95/783
f 697/95/764 696/95/774 685/95/777 691/95/765
f 659/121/715 658/121/715 657/121/715 664/121/715
f 683/121/715 665/121/715 664/121/715 657/121/715
f 684/121/715 666/121/715 665/121/715 683/121/715
f 683/95/802 657/95/803 696/95/774 697/95/764
f 659/95/804 664/95/805 700/95/800 699/95/782
f 664/95/805 665/95/806 694/95/767 700/95/800
f 666/95/807 684/95/808 698/95/763 693/95/768
f 658/95/809 659/95/804 699/95/782 695/95/775
f 657/95/803 658/95/809 695/95/775 696/95/774
f 665/95/806 666/95/807 693/95/768 694/95/767
f 684/95/808 683/95/802 697/95/764 698/95/763
f 701/122/810 703/125/810 704/124/810 702/123/810
f 703/125/811 705/127/811 706/126/811 704/124/811
f 705/127/812 707/129/812 708/128/812 706/126/812
f 707/129/813 709/131/813 710/130/813 708/128/813
f 709/131/814 711/133/814 712/132/814 710/130/814
f 711/133/815 713/135/815 714/134/815 712/132/815
f 713/135/816 715/137/816 716/136/816 714/134/816
f 715/137/817 701/139/817 702/138/817 716/136/817
f 703/140/818 718/140/819 719/141/820 705/141/820
f 709/142/821 721/142/822 722/143/823 711/143/824
f 715/144/825 724/144/826 717/72/827 701/72/828
f 701/145/828 717/145/827 718/140/819 703/140/818
f 705/141/820 719/141/820 720/146/829 707/146/830
f 711/143/824 722/143/823 723/147/831 713/147/831
f 707/146/830 720/146/829 721/142/822 709/142/821
f 713/147/831 723/147/831 724/144/826 715/144/825
f 753/148/832 727/141/833 728/146/834 749/146/832
f 754/145/835 725/145/836 726/140/836 750/140/835
f 755/144/837 732/144/838 725/72/839 754/72/837
f 756/143/840 730/143/841 731/147/842 751/147/840
f 749/146/843 728/146/844 729/142/844 752/142/843
f 750/140/845 726/140/846 727/141/847 753/148/845
f 751/147/848 731/147/849 732/144/850 755/144/848
f 752/142/851 729/142/852 730/143/853 756/143/851
f 731/147/849 739/147/854 740/144/855 732/144/850
f 729/142/852 737/142/856 738/143/857 730/143/853
f 727/141/833 735/141/858 736/146/859 728/146/834
f 725/145/836 733/145/860 734/140/861 726/140/836
f 732/144/838 740/144/855 733/72/860 725/72/839
f 730/143/841 738/143/857 739/147/854 731/147/842
f 728/146/844 736/146/859 737/142/856 729/142/844
f 726/140/846 734/140/861 735/141/858 727/141/847
f 721/142/862 748/142/862 747/143/862 722/143/862
f 723/147/863 746/149/863 745/144/863 724/144/863
f 718/140/864 743/140/864 742/148/864 719/141/864
f 720/146/865 741/146/865 748/142/865 721/142/865
f 722/143/866 747/143/866 746/149/866 723/147/866
f 724/144/867 745/144/867 744/72/867 717/72/867
f 717/145/868 744/145/868 743/140/868 718/140/868
f 719/141/869 742/148/869 741/146/869 720/146/869
f 748/142/870 764/151/871 763/150/872 747/143/873
f 750/140/874 766/153/875 770/152/876 754/145/877
f 742/148/878 758/155/878 757/154/879 741/146/880
f 754/72/877 770/157/876 771/156/881 755/144/882
f 744/145/883 760/159/884 759/158/885 743/140/885
f 751/147/886 767/149/886 772/160/887 756/143/888
f 745/144/889 761/161/890 760/72/884 744/72/883
f 752/142/891 768/163/892 765/162/893 749/146/894
f 764/151/895 768/163/895 772/160/895 763/150/895
f 762/149/896 767/149/896 771/156/896 761/161/896
f 759/158/897 766/153/897 769/155/897 758/155/897
f 757/154/898 765/162/898 768/163/898 764/151/898
f 763/150/899 772/160/899 767/149/899 762/149/899
f 761/161/900 771/156/900 770/157/900 760/72/900
f 760/159/901 770/152/901 766/153/901 759/158/901
f 758/155/902 769/155/902 765/162/902 757/154/902
f 749/146/894 765/162/893 769/155/903 753/148/903
f 746/149/904 762/149/904 761/161/890 745/144/889
f 756/143/888 772/160/887 768/163/892 752/142/891
f 743/140/885 759/158/885 758/155/878 742/148/878
f 755/144/882 771/156/881 767/149/886 751/147/886
f 741/146/880 757/154/879 764/151/871 748/142/870
f 753/148/903 769/155/903 766/153/875 750/140/874
f 747/143/873 763/150/872 762/149/904 746/149/904
f 710/164/905 712/167/905 714/166/905 716/165/905
f 708/168/905 710/164/905 716/165/905 702/169/905
f 702/169/905 704/171/905 706/170/905 708/168/905
f 251/78/233 252/81/227 638/81/729 637/78/738
f 252/81/227 253/83/226 639/83/730 638/81/729
f 253/83/226 254/85/224 640/85/725 639/83/730
f 254/85/224 255/87/223 641/87/726 640/85/725
f 255/87/223 256/89/232 642/89/735 641/87/726
f 256/89/232 257/91/230 643/91/732 642/89/735
f 257/91/230 258/93/229 644/93/733 643/91/732
f 258/93/229 251/95/233 637/95/738 644/93/733
f 301/95/256 300/95/253 686/95/776 687/95/783
f 305/95/244 306/95/243 692/95/766 691/95/765
f 299/95/252 305/95/244 691/95/765 685/95/777
f 304/95/248 303/95/247 689/95/770 690/95/769
f 303/95/247 302/95/265 688/95/801 689/95/770
f 300/95/253 299/95/252 685/95/777 686/95/776
f 302/95/265 301/95/256 687/95/783 688/95/801
f 306/95/243 304/95/248 690/95/769 692/95/766
f 347/145/309 348/140/308 734/140/861 733/145/860
f 348/140/308 349/141/307 735/141/858 734/140/861
f 349/141/307 350/146/306 736/146/859 735/141/858
f 350/146/306 351/142/305 737/142/856 736/146/859
f 351/142/305 352/143/304 738/143/857 737/142/856
f 352/143/304 353/147/303 739/147/854 738/143/857
f 353/147/303 354/144/302 740/144/855 739/147/854
f 354/144/302 347/72/309 733/72/860 740/144/855
